<svg width="555" height="656" viewBox="0 0 555 656" fill="none" xmlns="http://www.w3.org/2000/svg">
<g filter="url(#filter0_d_16_223)">
<g filter="url(#filter1_d_16_223)">
<path d="M190.686 414.091C189.377 414.284 187.837 414.386 187.525 415.945C187.284 417.153 187.375 418.396 188.099 419.444C189.336 421.234 191.174 422.279 193.388 421.91C195.367 421.581 198.086 419.787 198.086 417.559C198.086 416.303 197.181 415.039 196.433 414.099C195.631 413.092 194.938 412.032 193.928 411.208C192.566 410.097 191.465 409.988 190.24 411.298C189.57 412.015 188.936 412.993 188.643 413.932C188.498 414.395 188.605 414.766 188.605 415.23C188.605 415.848 188.49 414.936 188.605 414.63" stroke="#00ADB5" stroke-opacity="0.5" stroke-linecap="round" stroke-linejoin="round"/>
<path d="M197.469 417.63C198.583 418.619 199.527 419.513 201.497 419.561C202.876 419.595 204.254 419.251 205.546 418.88C206.472 418.615 209.438 417.21 207.034 417.097" stroke="#00ADB5" stroke-opacity="0.5" stroke-linecap="round" stroke-linejoin="round"/>
<path d="M208.955 409.003C207.485 410.626 205.457 413.807 206.219 416.245C206.487 417.102 206.876 417.679 207.379 418.412C208.393 419.886 209.963 419.426 211.388 419.041C212.42 418.762 213.647 417.883 214.043 416.883C214.588 415.503 213.451 413.345 212.501 412.395C211.44 411.334 210.6 410.043 209.418 409.114C209.103 408.867 208.864 408.599 208.454 408.69C207.993 408.793 207.803 409.234 208.416 409.234" stroke="#00ADB5" stroke-opacity="0.5" stroke-linecap="round" stroke-linejoin="round"/>
<path d="M312.866 186.582C311.557 186.776 310.017 186.878 309.706 188.437C309.464 189.645 309.556 190.888 310.28 191.936C311.517 193.726 313.355 194.771 315.568 194.402C317.548 194.072 320.266 192.279 320.266 190.051C320.266 188.795 319.362 187.531 318.613 186.591C317.811 185.583 317.118 184.524 316.108 183.7C314.746 182.589 313.646 182.48 312.421 183.79C311.751 184.507 311.117 185.485 310.823 186.424C310.679 186.887 310.785 187.258 310.785 187.722C310.785 188.34 310.67 187.428 310.785 187.122" stroke="#00ADB5" stroke-opacity="0.5" stroke-linecap="round" stroke-linejoin="round"/>
<path d="M319.65 190.122C320.764 191.111 321.708 192.005 323.677 192.053C325.056 192.087 326.435 191.743 327.727 191.372C328.652 191.107 331.618 189.702 329.215 189.589" stroke="#00ADB5" stroke-opacity="0.5" stroke-linecap="round" stroke-linejoin="round"/>
<path d="M331.135 181.495C329.666 183.118 327.637 186.299 328.399 188.737C328.667 189.594 329.056 190.171 329.559 190.903C330.573 192.377 332.143 191.918 333.568 191.533C334.601 191.254 335.828 190.375 336.223 189.375C336.769 187.994 335.631 185.837 334.681 184.887C333.62 183.826 332.78 182.535 331.598 181.606C331.283 181.359 331.045 181.091 330.634 181.182C330.173 181.285 329.983 181.726 330.596 181.726" stroke="#00ADB5" stroke-opacity="0.5" stroke-linecap="round" stroke-linejoin="round"/>
<path d="M200.125 139.395C207.672 135.8 213.772 129.855 219.907 124.249C224.728 119.843 229.784 115.49 235.105 111.688C236.155 110.937 237.638 109.428 239.057 110.071C240.464 110.709 241.274 112.445 242.386 113.473C245.123 116.005 247.585 119.099 249.835 122.074C252.313 125.349 248.598 127.162 246.301 129.306C243.692 131.742 241.2 134.254 238.351 136.403C235.642 138.446 233.466 141.262 230.986 143.575C227.207 147.1 223.672 150.853 219.904 154.381C217.661 156.481 215.087 158.196 212.927 160.371C212.17 161.133 211.47 162.141 210.597 162.775C209.896 163.285 208.926 161.325 208.676 160.956C206.695 158.026 203.626 156.021 201.686 152.957C200.467 151.03 199.646 148.652 198.186 146.892C197.489 146.052 195.747 144.161 196.51 142.934C197.29 141.681 199.503 141.081 200.71 140.184C201.651 139.484 202.795 138.621 203.866 138.134C204.644 137.781 205.408 137.154 206.104 136.672C207.936 135.402 205.995 135.945 204.756 136.417" stroke="#00ADB5" stroke-opacity="0.5" stroke-linecap="round" stroke-linejoin="round"/>
<path d="M201.278 145.148C205.872 147.992 209.993 152.108 213.58 156.167C213.67 156.27 214.543 156.878 214.41 157.103C214.153 157.538 211.171 155.575 210.887 155.379" stroke="#00ADB5" stroke-opacity="0.5" stroke-linecap="round" stroke-linejoin="round"/>
<path d="M205.832 141.036C209.557 142.102 211.777 144.132 214.784 146.303C216.124 147.27 217.488 148.143 218.69 149.281C219.255 149.815 219.657 150.518 220.179 151.094C220.894 151.883 217.974 150.178 217.63 149.981" stroke="#00ADB5" stroke-opacity="0.5" stroke-linecap="round" stroke-linejoin="round"/>
<path d="M211.244 137.848C213.851 140.201 216.471 142.521 219.159 144.778C220.18 145.636 221.34 146.423 222.222 147.434C223.788 149.227 221.737 146.9 221.041 146.243" stroke="#00ADB5" stroke-opacity="0.5" stroke-linecap="round" stroke-linejoin="round"/>
<path d="M214.896 135.606C216.83 136.781 218.849 137.92 220.486 139.505C221.158 140.156 221.715 140.922 222.433 141.524C223.317 142.266 224.092 143.132 224.982 143.853C226.25 144.88 226.441 145.18 224.935 143.891" stroke="#00ADB5" stroke-opacity="0.5" stroke-linecap="round" stroke-linejoin="round"/>
<path d="M219.604 132.154C221.737 133.824 223.712 135.519 225.495 137.555C226.285 138.457 226.922 139.498 227.924 140.19C228.843 140.824 229.486 141.007 228.411 139.977" stroke="#00ADB5" stroke-opacity="0.5" stroke-linecap="round" stroke-linejoin="round"/>
<path d="M224.137 128.637C226.015 130.048 227.866 131.336 229.367 133.154C230.053 133.986 230.595 134.942 231.362 135.709C232.92 137.268 231.849 136.482 230.722 135.424" stroke="#00ADB5" stroke-opacity="0.5" stroke-linecap="round" stroke-linejoin="round"/>
<path d="M228.317 124.987C230.954 127.509 233.162 130.463 235.803 132.954C237.582 134.632 235.034 131.944 234.617 131.466" stroke="#00ADB5" stroke-opacity="0.5" stroke-linecap="round" stroke-linejoin="round"/>
<path d="M233.421 122.085C235.641 121.179 237.943 120.099 239.135 117.884C239.464 117.274 239.888 116.742 240.023 116.054C240.209 115.109 240.172 115.515 239.472 116.126" stroke="#00ADB5" stroke-opacity="0.5" stroke-linecap="round" stroke-linejoin="round"/>
<path d="M236.994 125.133C238.754 123.5 240.721 121.716 242.01 119.644C242.653 118.61 243.878 117.348 242.165 118.843" stroke="#00ADB5" stroke-opacity="0.5" stroke-linecap="round" stroke-linejoin="round"/>
<path d="M242.635 128.555C244.238 126.813 245.665 125.192 247.141 123.371C247.617 122.782 249.07 122.018 247.322 122.485" stroke="#00ADB5" stroke-opacity="0.5" stroke-linecap="round" stroke-linejoin="round"/>
<path d="M241.36 127.674C243.038 126.236 244.935 124.562 246.265 122.747C246.62 122.262 246.893 121.723 247.218 121.219C247.762 120.376 247.796 120.661 246.971 120.748" stroke="#00ADB5" stroke-opacity="0.5" stroke-linecap="round" stroke-linejoin="round"/>
<path d="M205.808 148.053C214.168 144.657 216.231 135.44 223.043 130.228C223.872 129.594 224.545 128.889 225.512 128.45C226.158 128.157 226.956 128.016 227.544 127.641C227.903 127.411 230.882 125.135 228.812 126.076" stroke="#00ADB5" stroke-opacity="0.5" stroke-linecap="round" stroke-linejoin="round"/>
<path d="M201.915 145.588C202.854 144.447 203.687 143.471 204.877 142.646C205.072 142.51 205.373 142.488 205.534 142.307C205.852 141.949 206.334 141.425 206.456 140.964C206.939 139.145 209.297 139.481 210.55 138.569C211.741 137.702 212.888 136.823 214.103 135.966C215.441 135.022 216.06 134.194 217.135 132.984C218.122 131.872 219.081 130.748 220.126 129.696C220.981 128.835 222.324 128.052 222.868 126.95C223.482 125.707 225.052 124.284 226.465 124.514C226.95 124.594 230.515 126.66 228.185 125.339" stroke="#00ADB5" stroke-opacity="0.5" stroke-linecap="round" stroke-linejoin="round"/>
<path d="M209.48 150.033C215.763 146.72 219.249 139.495 223.492 134.037C225.055 132.027 227.288 130.691 228.924 128.716C229.624 127.871 231.169 126.974 229.372 126.989" stroke="#00ADB5" stroke-opacity="0.5" stroke-linecap="round" stroke-linejoin="round"/>
<path d="M211.723 152.08C217.416 148.58 221.06 142.069 225.202 136.91C227.086 134.562 228.905 132.166 230.812 129.837C231.682 128.776 233.198 128.113 231.252 129.2" stroke="#00ADB5" stroke-opacity="0.5" stroke-linecap="round" stroke-linejoin="round"/>
<path d="M213.966 155.732C217.518 152.268 220.386 148.53 223.292 144.523C225.059 142.087 226.587 139.348 228.662 137.155C229.853 135.896 230.769 134.422 231.85 133.088C232.286 132.55 232.586 131.924 233.034 131.391C234.042 130.19 233.339 131.276 232.637 131.928" stroke="#00ADB5" stroke-opacity="0.5" stroke-linecap="round" stroke-linejoin="round"/>
<path d="M214.801 157.25C216.569 155.518 219.159 153.852 220.338 151.605C220.766 150.79 221.825 148.821 222.568 148.322C223.551 147.662 224.019 146.259 224.733 145.377C225.478 144.458 226.207 143.561 227.015 142.687C227.772 141.867 228.015 140.428 228.952 139.723C229.997 138.937 230.505 137.72 231.339 136.782C232.06 135.97 233.433 135.129 234.328 134.508C234.824 134.165 235.17 133.696 235.732 133.441C236.872 132.923 236.132 133.188 235.089 133.149" stroke="#00ADB5" stroke-opacity="0.5" stroke-linecap="round" stroke-linejoin="round"/>
<path d="M233.278 122.734C234.74 123.119 236.543 123.384 237.876 124.181C238.736 124.695 239.485 125.211 237.919 124.275" stroke="#00ADB5" stroke-opacity="0.5" stroke-linecap="round" stroke-linejoin="round"/>
<path d="M234.796 120.293C236.882 120.838 238.357 121.449 240.057 122.558C241.17 123.283 240.991 123.082 239.833 122.384" stroke="#00ADB5" stroke-opacity="0.5" stroke-linecap="round" stroke-linejoin="round"/>
<path d="M237.327 117.83C239.118 118.837 240.856 119.982 242.708 120.859C243.797 121.375 243.226 121.339 242.385 120.933" stroke="#00ADB5" stroke-opacity="0.5" stroke-linecap="round" stroke-linejoin="round"/>
<path d="M238.768 115.862C240.651 116.719 242.388 117.573 244.122 118.652C244.913 119.144 244.195 119.176 243.595 118.778" stroke="#00ADB5" stroke-opacity="0.5" stroke-linecap="round" stroke-linejoin="round"/>
<path d="M234.202 121.876C235.625 120.184 237.052 118.581 238.348 116.847C238.716 116.355 240.958 113.612 239.989 115.015" stroke="#00ADB5" stroke-opacity="0.5" stroke-linecap="round" stroke-linejoin="round"/>
<path d="M235.697 124.846C237.548 123.209 240.216 121.027 240.814 118.581C240.99 117.862 241.371 117.143 241.93 116.647C242.497 116.145 243.09 115.919 242.243 116.765" stroke="#00ADB5" stroke-opacity="0.5" stroke-linecap="round" stroke-linejoin="round"/>
<path d="M234.212 124.791C236.186 122.664 237.874 121.235 238.989 118.616C239.279 117.935 239.611 117.372 240.086 116.836C240.59 116.269 241.313 115.738 240.34 116.753" stroke="#00ADB5" stroke-opacity="0.5" stroke-linecap="round" stroke-linejoin="round"/>
<path d="M241.547 125.838C242.456 126.414 243.368 126.948 244.313 127.428C244.703 127.626 244.22 127.243 244.054 127.18" stroke="#00ADB5" stroke-opacity="0.5" stroke-linecap="round" stroke-linejoin="round"/>
<path d="M243.319 122.99C243.38 123.042 246.954 126.105 246.32 125.422" stroke="#00ADB5" stroke-opacity="0.5" stroke-linecap="round" stroke-linejoin="round"/>
<path d="M245.442 121.88C246.23 122.638 248.645 124.857 247.795 124.168" stroke="#00ADB5" stroke-opacity="0.5" stroke-linecap="round" stroke-linejoin="round"/>
<path d="M240.491 127.047C241.798 125.831 244.663 123.42 245.365 121.55C245.642 120.813 246.909 119.866 245.717 120.879" stroke="#00ADB5" stroke-opacity="0.5" stroke-linecap="round" stroke-linejoin="round"/>
<path d="M240.656 127.41C240.78 127.51 243.279 130.201 243.812 128.896C244.084 128.23 244.438 127.362 245.105 126.995C246.276 126.351 246.492 124.322 247.69 123.778C249.05 123.16 248.923 122.125 247.657 121.758C247.159 121.613 247.552 120.633 247.035 120.71C246.562 120.781 246.312 120.606 245.783 120.703" stroke="#00ADB5" stroke-opacity="0.5" stroke-linecap="round" stroke-linejoin="round"/>
<path d="M233.113 122.371C233.97 124.009 234.132 124.602 235.515 125.285C235.888 125.47 236.376 125.214 236.659 125.358C237.219 125.642 238.327 125.648 238.746 125.132C239.587 124.093 239.897 123.423 241.185 122.791C241.999 122.393 242.653 121.452 243.029 120.673C243.442 119.816 244.187 119.171 244.624 118.311C244.81 117.945 243.309 117.002 243.295 116.368C243.292 116.188 241.51 116.183 241.213 116.033C240.854 115.85 240.689 115.593 240.517 115.214C240.265 114.659 239.819 115.348 239.142 115.4" stroke="#00ADB5" stroke-opacity="0.5" stroke-linecap="round" stroke-linejoin="round"/>
<path d="M203.434 143.147C205.458 143.916 207.224 144.908 209.046 146.006C210.629 146.96 212.417 147.467 213.989 148.391C215.108 149.049 216.27 150.551 217.096 151.537C217.371 151.866 217.577 152.173 217.772 152.544C218.22 153.394 217.754 151.339 217.707 151.114" stroke="#00ADB5" stroke-opacity="0.5" stroke-linecap="round" stroke-linejoin="round"/>
<path d="M222.982 127.701C223.544 128.291 225.817 131.545 225.368 129.099" stroke="#00ADB5" stroke-opacity="0.5" stroke-linecap="round" stroke-linejoin="round"/>
<path d="M227.661 353.572C227.902 354.811 228.514 355.616 228.989 356.744C229.312 357.511 229.916 358.106 230.253 358.859C230.616 359.672 231.161 360.628 231.667 361.352C232.102 361.972 232.386 362.56 232.935 363.109C233.903 364.077 234.636 365.232 235.61 366.187C237.025 367.575 239.421 369.386 241.482 369.272C242.144 369.235 242.877 369.44 243.527 369.342C244.084 369.258 244.761 369.23 245.319 369.326C246.236 369.485 247.232 369.325 248.109 369.515C248.583 369.618 249.099 369.468 249.578 369.557C250.2 369.672 250.929 369.701 251.562 369.701C253.636 369.701 255.705 369.688 257.774 369.426C258.895 369.283 260.005 369.655 261.115 369.458C262.156 369.272 263.543 369.464 264.523 369.035C265.727 368.508 266.924 367.68 267.854 366.75C268.321 366.284 268.674 365.727 268.99 365.15C269.405 364.393 269.636 363.576 270.053 362.821C271.506 360.186 272.335 357.253 273.512 354.507C273.789 353.859 274.245 353.335 274.578 352.737C274.662 352.586 274.7 352.393 274.837 352.247C275.35 351.704 274.367 351.646 273.915 351.441" stroke="#00ADB5" stroke-opacity="0.5" stroke-linecap="round" stroke-linejoin="round"/>
<path d="M227.43 353.687C228.46 352.341 229.333 351.351 230.829 350.59C232.081 349.952 233.38 349.195 234.512 348.362C236.251 347.084 238.645 346.514 240.762 346.129C243.067 345.71 245.335 345.22 247.681 345.22C248.406 345.22 249.124 345.438 249.85 345.45C250.719 345.465 251.59 345.492 252.455 345.566C253.783 345.679 255.145 345.652 256.474 345.681C258.329 345.721 260.105 346.681 261.959 346.83C263.063 346.918 264.349 347.083 265.422 347.383C265.824 347.496 266.282 347.572 266.657 347.754C267.124 347.981 267.451 348.365 267.88 348.631C269.263 349.492 270.81 349.897 272.305 350.551C272.764 350.752 273.552 351.095 274.059 351.095C274.758 351.095 274.721 352.385 274.721 351.095" stroke="#00ADB5" stroke-opacity="0.5" stroke-linecap="round" stroke-linejoin="round"/>
<path d="M274.606 351.902C273.752 353.047 273.143 353.483 271.931 354.151C270.979 354.676 269.925 355.048 268.859 355.243C267.863 355.425 266.776 355.568 265.767 355.649C264.928 355.716 264.071 355.619 263.214 355.716C261.274 355.937 259.318 356.437 257.447 356.984C254.777 357.764 252.198 357.845 249.44 357.995C246.43 358.158 243.411 357.928 240.461 357.316C239.466 357.11 238.414 357.295 237.402 357.256C236.286 357.212 235.193 356.905 234.144 356.542C233.702 356.389 233.295 356.155 232.832 356.049C232.29 355.926 231.738 355.974 231.2 355.844C230.45 355.663 229.574 355.336 228.941 354.897C228.665 354.706 228.251 354.549 228.035 354.26C227.972 354.176 227.891 353.989 227.891 353.889C227.891 353.651 227.696 353.711 228.006 353.918" stroke="#00ADB5" stroke-opacity="0.5" stroke-linecap="round" stroke-linejoin="round"/>
<path d="M249.838 363.595C250.539 363.517 251.465 363.53 251.175 362.629C251.082 362.339 250.848 362.308 250.599 362.225C249.858 361.978 248.532 362.457 248.253 363.23C247.754 364.618 248.7 366.118 250.186 365.637C250.591 365.506 251.308 365.22 251.566 364.853C251.874 364.412 251.411 364.542 251.105 364.113" stroke="#00ADB5" stroke-opacity="0.5" stroke-linecap="round" stroke-linejoin="round"/>
<path d="M247.706 362.097C248.824 361.649 249.395 361.464 250.526 361.464C250.981 361.464 251.209 361.432 251.61 361.694C252.274 362.128 252.502 362.952 252.433 363.678C252.374 364.291 252.172 365.131 251.956 365.713C251.796 366.146 251.399 366.221 250.993 366.302C250.622 366.376 249.813 366.169 249.521 366.331C249.211 366.503 248.263 366.561 248.023 366.241C247.803 365.947 247.566 365.821 247.405 365.464C247.252 365.123 247.183 364.798 247.06 364.459C246.891 363.994 246.587 362.723 247.217 362.443C247.586 362.279 247.744 362.181 248.167 362.181C248.287 362.181 248.39 362.27 248.513 362.27C248.69 362.27 248.171 362.155 247.994 362.155" stroke="#00ADB5" stroke-opacity="0.5" stroke-linecap="round" stroke-linejoin="round"/>
<path d="M249.722 357.489C250.535 356.439 251.276 355.355 252.116 354.334C252.567 353.785 253.127 353.313 253.614 352.788C255.006 351.285 256.424 349.639 257.486 347.882C258.531 346.152 259.958 344.267 261.508 342.967C262.327 342.28 263.059 341.522 263.771 340.73C264.462 339.962 264.78 338.889 265.435 338.077C265.942 337.449 269.26 333.174 269.838 335.773C270.065 336.795 269.069 337.509 268.443 338.135C267.733 338.845 267.019 339.747 266.414 340.554C265.831 341.332 265.121 342.016 264.555 342.801C263.784 343.868 262.381 344.632 261.819 345.841C261.355 346.838 260.585 347.64 260.007 348.564C259.207 349.845 258.269 350.915 257.326 352.087C256.578 353.016 255.407 353.78 254.878 354.839C254.435 355.724 253.651 356.097 252.935 356.67C252.624 356.919 252.245 357.058 251.969 357.403C251.877 357.518 251.712 357.65 251.626 357.521C251.577 357.448 251.39 357.613 251.425 357.694C251.548 357.981 251.249 357.005 251.22 356.913" stroke="#00ADB5" stroke-opacity="0.5" stroke-linecap="round" stroke-linejoin="round"/>
<path d="M249.261 357.777C249.482 357.889 250.874 358.946 250.874 358.094C250.874 357.836 251.206 357.406 251.322 357.144C251.411 356.945 250.615 357.135 250.497 357.288C250.342 357.486 250.042 357.648 250.529 357.662C250.903 357.673 251.195 357.512 251.479 357.291C251.561 357.227 252.66 357.401 251.681 357.374C251.16 357.359 250.654 357.374 250.154 357.374C249.722 357.374 250.598 357.259 250.724 357.259C250.825 357.259 249.994 357.753 249.85 357.592C249.815 357.552 249.755 357.444 249.895 357.374" stroke="#00ADB5" stroke-opacity="0.5" stroke-linecap="round" stroke-linejoin="round"/>
<path d="M230.944 353.515C231.009 353.549 233.067 354.627 233.075 354.494C233.085 354.333 232.97 354.192 233.05 354.033C233.398 353.336 233.849 353.671 234.448 353.94C234.916 354.151 234.206 351.82 235.616 352.804C236.345 353.313 236.539 353.232 236.419 352.379C236.329 351.733 236.552 351.731 237.107 351.799C237.485 351.846 237.756 351.928 237.971 351.569C238.233 351.133 238.528 350.885 239.063 351.073C239.506 351.229 239.9 351.668 240.205 351.108C240.339 350.862 240.226 350.125 240.65 350.267C240.916 350.355 241.266 350.702 241.568 350.593C241.798 350.51 241.974 349.799 242.234 349.911C242.505 350.029 242.781 350.543 243.124 350.42C243.289 350.361 243.595 349.821 243.271 349.886" stroke="#00ADB5" stroke-opacity="0.5" stroke-linecap="round" stroke-linejoin="round"/>
<path d="M239.066 352.478C239.78 353.059 242.454 356.162 243.239 353.844C243.38 353.429 243.402 352.607 243.796 353.287C244.12 353.848 244.609 354.237 245.14 353.707C245.492 353.355 245.648 352.758 246.151 352.574C246.613 352.405 246.951 353.273 247.335 352.766C247.645 352.357 247.495 351.654 247.041 351.409C246.892 351.328 246.85 351.606 246.785 351.671" stroke="#00ADB5" stroke-opacity="0.5" stroke-linecap="round" stroke-linejoin="round"/>
<path d="M245.229 348.907C246.342 348.715 247.743 348.326 248.589 349.323C248.982 349.784 248.944 350.374 248.685 350.897C248.496 351.279 247.987 351.47 247.661 351.095C247.395 350.788 247.945 350.281 248.141 350.094C248.816 349.451 249.815 350.48 250.026 351.179C250.203 351.762 248.608 353.114 248.801 352.535" stroke="#00ADB5" stroke-opacity="0.5" stroke-linecap="round" stroke-linejoin="round"/>
<path d="M263.95 350.865C264.28 350.751 266.406 350.067 265.998 351.198C265.789 351.778 264.987 352.089 264.462 352.279C264.213 352.369 263.571 352.354 263.988 351.991C264.349 351.678 264.858 351.53 265.332 351.569C267.181 351.719 264.596 353.843 264.065 354.136C263.034 354.704 261.631 355.303 260.551 354.609" stroke="#00ADB5" stroke-opacity="0.5" stroke-linecap="round" stroke-linejoin="round"/>
<path d="M252.602 347.466C253.041 348.18 253.568 348.896 253.943 349.646C254.072 349.904 253.514 349.243 253.383 348.987C253.348 348.919 253.108 348.162 253.085 348.167C252.805 348.23 252.739 349.514 252.663 349.751C252.304 350.873 251.417 350.443 250.548 350.359C249.495 350.258 249.024 351.296 248.442 351.959C247.976 352.49 247.793 352.653 248.109 353.284C248.365 353.795 248.471 354.291 248.109 354.753C247.827 355.114 247.474 355.342 247.133 355.64C246.821 355.912 247.269 355.867 247.21 355.704C247.05 355.256 246.064 355.349 245.741 355.371C244.542 355.45 243.321 355.149 242.144 355.224C241.519 355.263 240.93 355.612 240.311 355.704C239.681 355.797 240.513 356.343 240.749 356.5C241.155 356.771 239.955 355.925 239.514 355.716C238.774 355.366 238.092 355.096 237.709 354.321C237.325 353.545 236.988 353.016 236.339 352.446C236.116 352.249 236.089 351.951 236.198 351.684C236.451 351.067 237.012 350.565 237.568 350.231" stroke="#00ADB5" stroke-opacity="0.5" stroke-linecap="round" stroke-linejoin="round"/>
<path d="M252.487 349.771C251.043 348.763 249.852 348.329 248.154 348.1C247.557 348.02 246.921 347.607 246.532 347.15C246.186 346.744 246.382 346.852 245.975 347.402C245.419 348.155 245.006 347.48 244.295 347.678C243.206 347.981 242.271 348.994 241.165 349.182C240.862 349.233 240.935 348.727 240.557 348.945C239.92 349.312 239.433 349.66 238.688 349.777C238.238 349.848 237.384 350.144 237.453 350.692" stroke="#00ADB5" stroke-opacity="0.5" stroke-linecap="round" stroke-linejoin="round"/>
<path d="M262.279 349.771C263.673 349.905 265.084 349.888 266.472 350.036C266.96 350.088 267.21 350.286 267.553 350.606C267.863 350.894 268.347 351.574 268.792 351.611C269.433 351.664 269.764 351.398 270.363 351.211C270.723 351.098 271.873 351.211 271.496 351.211" stroke="#00ADB5" stroke-opacity="0.5" stroke-linecap="round" stroke-linejoin="round"/>
<path d="M261.243 351.326C259.745 352.313 258.945 353.81 257.342 354.708C257.024 354.886 256.053 355.231 256.126 355.816C256.179 356.239 259.424 354.914 259.918 354.667" stroke="#00ADB5" stroke-opacity="0.5" stroke-linecap="round" stroke-linejoin="round"/>
<path d="M266.83 352.708C267.644 353.314 268.347 354.181 269.365 353.873C269.64 353.79 270.216 353.757 270.401 353.572" stroke="#00ADB5" stroke-opacity="0.5" stroke-linecap="round" stroke-linejoin="round"/>
<path d="M468.132 327.597C463.925 328.404 460.867 329.619 458.201 333.047C456.511 335.219 456.882 338.638 457.989 340.941C459.813 344.736 464.298 346.879 468.344 347.065C473.057 347.281 479.609 345.896 480.575 340.275C481.093 337.262 478.214 334.413 476.866 331.942C475.77 329.931 474.118 327.221 471.81 326.371C470.868 326.024 468.681 326.144 467.995 327.082C467.689 327.501 467.295 327.944 467.072 328.414C466.891 328.796 467.085 327.444 467.042 327.052" stroke="#00ADB5" stroke-opacity="0.5" stroke-linecap="round" stroke-linejoin="round"/>
<path d="M469.903 337.951C468.768 338.535 466.926 338.921 467.92 340.199C468.146 340.491 468.469 340.475 468.745 340.199C468.98 339.964 470.167 338.728 469.29 338.436C467.502 337.84 468.156 341.407 469.433 339.829C470.12 338.981 469.159 338.146 468.298 338.663C467.272 339.278 468.084 340.353 468.889 339.42C469.495 338.716 469.011 338.177 468.351 338.837C467.76 339.428 468.36 340.37 468.941 339.571C469.537 338.752 468.858 338.058 468.139 338.776C467.307 339.608 468.208 339.521 468.798 338.973C469.392 338.421 468.338 338.502 467.995 338.935C467.2 339.941 468.446 339.798 468.646 338.935C468.941 337.668 467.634 340.58 468.268 338.36" stroke="#00ADB5" stroke-opacity="0.5" stroke-linecap="round" stroke-linejoin="round"/>
<path d="M465.271 333.728C466.481 335.325 467.721 336.839 468.737 338.436C469.019 338.878 468.794 339.322 468.949 339.314C469.522 339.282 470.11 339.178 470.72 339.178C472.118 339.178 473.218 338.496 474.565 338.496C476.196 338.496 478.593 338.073 475.897 336.725" stroke="#00ADB5" stroke-opacity="0.5" stroke-linecap="round" stroke-linejoin="round"/>
<path d="M463.908 327.461C463.653 326.173 462.41 323.05 464.725 323.381C465.556 323.5 466.114 324.359 466.603 324.902C467.874 326.315 467.738 328.021 465.679 328.142C465.14 328.174 464.38 329.243 463.772 328.483C463.083 327.621 463.786 327.679 463.908 326.643C463.988 325.966 463.545 326.022 463.355 325.356C463.21 324.846 463.512 324.287 463.635 323.918" stroke="#00ADB5" stroke-opacity="0.5" stroke-linecap="round" stroke-linejoin="round"/>
<path d="M464.726 325.962C464.713 326.287 464.212 329.22 465.278 328.74C465.635 328.579 465.944 328.346 466.088 327.975C466.228 327.617 466.079 327.402 465.921 327.052C465.515 326.149 464.336 324.745 464.695 326.779C464.922 328.063 466.355 327.763 466.466 326.537C466.552 325.601 465.371 324.347 464.62 325.417C464.088 326.174 465.035 327.842 465.588 326.673C465.87 326.08 465.197 324.571 464.483 325.311C463.751 326.069 464.851 327.669 465.573 327.022C466.287 326.382 465.802 324.43 465.028 325.175C464.321 325.856 465.382 327.212 465.921 326.174C466.523 325.016 465.198 324.143 464.786 325.356C464.418 326.44 465.565 327.604 465.831 326.128C466.033 325.005 463.969 324.408 463.969 325.75C463.969 326.987 465.074 326.86 465.074 325.735C465.074 324.562 463.893 324.826 464.385 325.811C464.877 326.795 465.537 325.048 464.983 324.494C464.336 323.847 463.479 324.847 464.241 325.47C464.76 325.895 465.47 324.132 464.597 323.805C463.843 323.522 464.26 325.062 464.521 324.713C464.926 324.173 464.305 323.811 464.733 323.918C465.11 324.013 466.026 324.214 466.285 324.547C466.488 324.808 467.314 326.265 467.314 326.643C467.314 327.8 465.544 328.424 464.529 328.134C463.8 327.926 463.584 328.441 463.84 328.271C464.46 327.857 464.589 326.779 464.589 327.188" stroke="#00ADB5" stroke-opacity="0.5" stroke-linecap="round" stroke-linejoin="round"/>
<path d="M464.589 346.943C463.888 348.432 463.265 349.927 462.44 351.334C462.254 351.65 461.905 352.297 461.864 352.666C461.754 353.66 462.752 350.295 462.954 349.805" stroke="#00ADB5" stroke-opacity="0.5" stroke-linecap="round" stroke-linejoin="round"/>
<path d="M478.35 344.082C480.075 346.261 481.978 347.815 483.323 350.206C483.455 350.441 483.685 350.628 483.868 350.811C484.48 351.423 482.732 349.505 482.165 348.851" stroke="#00ADB5" stroke-opacity="0.5" stroke-linecap="round" stroke-linejoin="round"/>
<path d="M364.065 217.051C365.144 221.123 369.31 236.26 370.307 241.791C373.051 257.019 368.745 236.24 368.735 242.966" stroke="#00ADB5" stroke-opacity="0.5" stroke-width="2" stroke-linecap="round" stroke-linejoin="round"/>
<path d="M356.754 223.634C356.386 217.438 354.996 208.838 363.684 209.723C367.772 210.14 372.274 212.566 374.822 215.812C378.76 220.828 376.683 228.604 372.428 232.596C370.163 234.72 367.966 235.785 365.003 236.588C359.982 237.949 363.944 230.976 364.753 229.064" stroke="#00ADB5" stroke-opacity="0.5" stroke-width="2" stroke-linecap="round" stroke-linejoin="round"/>
<path d="M379.352 231.207C387.985 230.745 395.931 229.046 399.02 238.408C400.814 243.849 403 250.46 401.504 256.194C400.152 261.375 397.24 264.614 391.916 262.407C384.308 259.253 384.318 253.315 388.459 247.393C389.984 245.213 395.823 240.847 395.827 238.298" stroke="#00ADB5" stroke-opacity="0.5" stroke-width="2" stroke-linecap="round" stroke-linejoin="round"/>
<path d="M394.912 221.104C394.618 223.375 394.613 239.444 390.264 239.598C389.448 239.627 388.764 240.051 388.051 240.406C385.313 241.769 386.979 240.542 388.001 239.123C390.316 235.909 395.006 237.097 397.353 232.831C399.903 228.199 401.077 225.921 397.422 222.338C394.861 219.826 395.986 215.555 393.969 221.573" stroke="#00ADB5" stroke-opacity="0.5" stroke-width="2" stroke-linecap="round" stroke-linejoin="round"/>
<path d="M407.653 206.522C410.99 214.033 414.039 223.815 419.392 230.354C420.806 232.082 421.6 230.578 421.578 229.232C421.551 227.532 421.072 225.816 420.579 224.206" stroke="#00ADB5" stroke-opacity="0.5" stroke-width="2" stroke-linecap="round" stroke-linejoin="round"/>
<path d="M397.966 226.055C403.26 223.972 416.258 221.864 418.473 215.253" stroke="#00ADB5" stroke-opacity="0.5" stroke-width="2" stroke-linecap="round" stroke-linejoin="round"/>
<path d="M414.247 206.768C437.192 246.902 414.838 218.694 426.5 211.353C433.58 206.898 434.17 227.897 436.132 218.814" stroke="#00ADB5" stroke-opacity="0.5" stroke-width="2" stroke-linecap="round" stroke-linejoin="round"/>
<path d="M434.74 205.387C435.572 207.876 438.368 224.307 444.189 220.554C446.792 218.875 449.824 215.675 450.325 212.529C450.864 209.154 448.755 200.579 443.984 201.502C441.806 201.924 438.164 202.025 436.744 204.095C435.371 206.095 434.504 210.779 436.152 205.86" stroke="#00ADB5" stroke-opacity="0.5" stroke-width="2" stroke-linecap="round" stroke-linejoin="round"/>
<path d="M450.997 201.409C457.504 197.231 465.152 195.86 466.142 205.698C466.266 206.933 466.289 208.488 466.856 209.625C467.512 210.943 466.163 206.403 464.886 205.67" stroke="#00ADB5" stroke-opacity="0.5" stroke-width="2" stroke-linecap="round" stroke-linejoin="round"/>
<path d="M450.52 205.176C450.814 210.319 450.079 217.286 452.482 222.111C452.564 222.275 453.135 223.534 452.847 222.844C452.278 221.479 452.042 220.553 450.969 219.073" stroke="#00ADB5" stroke-opacity="0.5" stroke-width="2" stroke-linecap="round" stroke-linejoin="round"/>
<path d="M285.833 251.734C284.932 260.093 286.503 285.829 272.305 284.227C269.345 283.894 266.657 283.399 265.251 280.61C263.778 277.69 262.56 275.149 262.414 271.832C262.234 267.758 263.856 265.835 267.15 263.996C268.305 263.352 265.823 265.962 265.603 266.215C264.155 267.878 269.067 265.851 270.945 265.435" stroke="#00ADB5" stroke-opacity="0.5" stroke-width="2" stroke-linecap="round" stroke-linejoin="round"/>
<path d="M304.06 255.75C296.879 256.422 286.743 257.783 285.584 266.767C284.956 271.64 292.201 272.232 295.345 273.892C300.748 276.743 304.848 286.043 298.787 290.136C294.573 292.982 291.385 291.469 287.286 291.753C283.121 292.042 286.021 290.507 288.49 290.086" stroke="#00ADB5" stroke-opacity="0.5" stroke-width="2" stroke-linecap="round" stroke-linejoin="round"/>
<path d="M342.973 34.5733C342.397 40.3405 342.047 46.1668 341.336 51.9203C341.267 52.4739 340.722 54.6592 341.367 52.8924C341.838 51.6006 341.686 50.2544 342.442 49.0294C343.485 47.3421 348.194 40.9151 350.406 41.5652C354.839 42.8682 350.365 51.0911 349.096 53.4474C348.658 54.26 347.465 56.0228 348.083 56.9341C348.906 58.149 350.429 53.6592 350.494 53.5218" stroke="#00ADB5" stroke-opacity="0.5" stroke-width="2" stroke-linecap="round" stroke-linejoin="round"/>
<path d="M360.482 38.3603C359.956 40.9369 355.543 53.655 359.795 55.7616C360.995 56.3561 363.65 55.2339 364.475 54.2665C365.334 53.2591 364.885 51.7166 364.792 50.5474" stroke="#00ADB5" stroke-opacity="0.5" stroke-width="2" stroke-linecap="round" stroke-linejoin="round"/>
<path d="M351.733 38.6382C356.398 40.0256 361.196 40.9493 365.832 42.3807C366.926 42.7186 367.336 42.8716 367.925 43.8477C368.841 45.366 366.407 43.9791 365.987 43.5192" stroke="#00ADB5" stroke-opacity="0.5" stroke-width="2" stroke-linecap="round" stroke-linejoin="round"/>
<path d="M372.831 47.6529C371.76 50.8857 370.754 54.1591 369.531 57.3404C369.289 57.9729 369.252 58.2042 369.121 57.7211C368.995 57.2557 368.872 56.9815 369.079 56.49C370.177 53.878 372.74 50.1241 375.158 48.6652C377.768 47.0897 376.344 52.3816 375.993 53.4529C375.599 54.656 374.538 57.9535 375.745 54.7627C376.462 52.8638 378.11 48.1445 380.888 48.8314C382.57 49.2474 382.182 51.5219 381.885 52.7246C381.336 54.9425 380.791 57.1455 380.241 59.3708C379.437 62.6225 379.871 60.8665 380.459 58.4903" stroke="#00ADB5" stroke-opacity="0.5" stroke-width="2" stroke-linecap="round" stroke-linejoin="round"/>
<path d="M393.569 40.5746C391.893 46.6026 389.837 52.6134 388.393 58.7041C388.224 59.4184 387.854 62.0633 388.992 62.3784C390.072 62.6777 394.341 60.1129 393.298 59.2237" stroke="#00ADB5" stroke-opacity="0.5" stroke-width="2" stroke-linecap="round" stroke-linejoin="round"/>
<path d="M103.427 286.46C99.464 293.989 95.5135 301.525 91.5395 309.048C90.4068 311.193 88.1712 317.753 87.8944 315.344C87.5191 312.077 89.5151 307.504 90.3621 304.443C91.5574 300.122 93.9913 291.491 100.056 291.522C104.634 291.547 109.781 298.26 110.491 302.449C110.992 305.406 112.45 302.066 114.428 301.174" stroke="#00ADB5" stroke-opacity="0.5" stroke-width="2" stroke-linecap="round" stroke-linejoin="round"/>
<path d="M115.712 310.581C118.376 316.775 122.302 327.246 130.386 321.485C134.101 318.838 132.255 314.308 128.588 312.869C119.601 309.343 108.276 319.189 106.035 327.282C103.794 335.374 112.64 337.855 118.725 338.654C122.092 339.096 121.337 336.218 124.234 335.216" stroke="#00ADB5" stroke-opacity="0.5" stroke-width="2" stroke-linecap="round" stroke-linejoin="round"/>
<path d="M138.095 331.997C131.113 329.082 121.864 326.483 117.93 335.405C116.033 339.705 124.52 340.21 127.038 340.091C131.846 339.865 142.552 328.735 138.945 331.922C135.779 334.719 132.576 338.02 131.274 342.15C130.434 344.818 131.399 350.711 134.492 346.641" stroke="#00ADB5" stroke-opacity="0.5" stroke-width="2" stroke-linecap="round" stroke-linejoin="round"/>
<path d="M165.244 337.579C155.111 338.551 143.102 339.06 139.507 350.445C137.74 356.041 141.886 359.933 146.882 361.575C150.373 362.723 153.932 360.231 156.05 357.703" stroke="#00ADB5" stroke-opacity="0.5" stroke-width="2" stroke-linecap="round" stroke-linejoin="round"/>
<path d="M174.448 339.123C173.892 339.799 148.931 367.004 160.829 367.214C164.124 367.273 167.505 365.356 169.773 363.201" stroke="#00ADB5" stroke-opacity="0.5" stroke-width="2" stroke-linecap="round" stroke-linejoin="round"/>
<path d="M153.305 344.073C158.098 347.378 162.823 350.878 168.08 353.432C169.445 354.096 171.72 354.412 172.66 355.788C173.188 356.561 172.358 354.725 172.266 354.458" stroke="#00ADB5" stroke-opacity="0.5" stroke-width="2" stroke-linecap="round" stroke-linejoin="round"/>
<path d="M99.8483 126.255C103.87 133.133 116.642 153.199 111.457 147.15C108.143 143.283 105.625 138.151 103.524 133.576C101.319 128.776 99.2483 120.211 107.651 120.645C114.864 121.019 117.743 128.384 119.012 134.421C119.571 137.084 119.714 139.153 120.909 141.575C122.13 144.052 122.198 134.509 122.662 132.033" stroke="#00ADB5" stroke-opacity="0.5" stroke-width="2" stroke-linecap="round" stroke-linejoin="round"/>
<path d="M125.833 112.267C126.057 113.307 129.533 137.092 134.579 132.518C136.704 130.592 137.171 125.844 137.444 123.243C138.296 115.114 134.862 114.11 129.155 112.39C126.433 111.569 125.875 111.606 125.127 114.409C123.592 120.164 126.012 118.547 129.113 115.347" stroke="#00ADB5" stroke-opacity="0.5" stroke-width="2" stroke-linecap="round" stroke-linejoin="round"/>
<path d="M147.773 105.557C144.97 110.282 141.395 115.84 143.367 121.627C144.185 124.028 146.088 123.393 147.421 122.042C149.524 119.909 150.621 116.404 150.504 113.475C150.28 107.861 146.763 103.057 143.072 99.0676C142.561 98.5145 137.9 94.6725 138.813 97.9712C140.452 103.896 145.015 109.595 148.194 114.745C153.434 123.232 155.041 119.936 157.395 111.969" stroke="#00ADB5" stroke-opacity="0.5" stroke-width="2" stroke-linecap="round" stroke-linejoin="round"/>
<path d="M157.893 107.026C159.633 108.649 173.363 118.456 173.789 109.757C173.827 108.968 172.821 108.721 172.49 108.049C171.635 106.316 170.219 105.173 169.449 104.264" stroke="#00ADB5" stroke-opacity="0.5" stroke-width="2" stroke-linecap="round" stroke-linejoin="round"/>
<path d="M159.038 112.921C153.602 105.782 146.008 98.3595 153.792 91.302C157.072 88.3282 163.878 90.6797 163.7 95.6483C163.617 97.9624 163.129 103.685 159.805 104.289C158.048 104.608 157.238 103.458 158.863 101.85" stroke="#00ADB5" stroke-opacity="0.5" stroke-width="2" stroke-linecap="round" stroke-linejoin="round"/>
<path d="M171.448 83.3129C174.963 85.5493 200.008 100.35 186.89 106.819C184.845 107.828 183.046 105.478 181.959 103.966C179.509 100.558 186.647 95.7227 186.944 92.1126" stroke="#00ADB5" stroke-opacity="0.5" stroke-width="2" stroke-linecap="round" stroke-linejoin="round"/>
<path d="M192.005 71.4142C189.959 73.0849 178.225 83.4619 187.452 85.4683C192.549 86.5765 197.366 81.4977 201.24 78.9626C207.48 74.8787 208.798 82.7372 207.083 87.1727C206.033 89.8891 197.266 98.7785 199.665 91.7115" stroke="#00ADB5" stroke-opacity="0.5" stroke-width="2" stroke-linecap="round" stroke-linejoin="round"/>
<path d="M261.261 457.65C253.455 461.578 243.226 468.742 251.665 478.247C255.713 482.807 263.186 480.939 268.517 480.412C270.015 480.264 274.148 481.705 273.023 480.705C270.589 478.542 268.838 478.681 268.108 475.029" stroke="#00ADB5" stroke-opacity="0.5" stroke-width="2" stroke-linecap="round" stroke-linejoin="round"/>
<path d="M284.434 455.016C284.434 460.771 284.38 464.891 290.285 467.129C292.835 468.096 294.436 468.983 295.113 471.84C295.878 475.069 293.625 479.747 290.958 481.553C287.661 483.786 283.52 484.565 279.811 483.045C276.634 481.743 280.146 480.204 281.8 478.715" stroke="#00ADB5" stroke-opacity="0.5" stroke-width="2" stroke-linecap="round" stroke-linejoin="round"/>
<path d="M310.239 448.697C309.203 452.71 304.534 463.443 308.688 467.597C310.365 469.274 313.612 468.343 315.68 468.826C317.738 469.307 319.503 470.882 320.771 472.513C322.779 475.094 320.868 479.006 318.548 480.822C314.948 483.639 309.806 482.402 305.616 482.402C303.328 482.402 304.891 482.24 306.025 480.822" stroke="#00ADB5" stroke-opacity="0.5" stroke-width="2" stroke-linecap="round" stroke-linejoin="round"/>
<path d="M301.16 398.752C305.217 397.204 312.742 394.74 316.666 391.964C320.809 389.034 316.472 388.192 314.267 388.892C310.533 390.079 308.277 393.99 307.011 397.436C303.679 406.507 314.279 416.761 323.191 415.722C331.426 414.761 332.575 410.729 333.811 404.545" stroke="#00ADB5" stroke-opacity="0.5" stroke-width="2" stroke-linecap="round" stroke-linejoin="round"/>
<path d="M339.078 394.012C338.155 395.515 329.39 413.561 326.965 405.072" stroke="#00ADB5" stroke-opacity="0.5" stroke-width="2" stroke-linecap="round" stroke-linejoin="round"/>
<path d="M322.752 394.539C326.45 399.482 335.384 417.156 344.344 416.658C345.644 416.586 343.92 411.583 343.818 410.865" stroke="#00ADB5" stroke-opacity="0.5" stroke-width="2" stroke-linecap="round" stroke-linejoin="round"/>
<path d="M346.977 394.539C349.02 406.506 353.112 442.674 350.781 430.76C349.579 424.617 338.603 391.374 348.265 392.754C352.455 393.353 363.151 399.466 360.348 405.072C358.772 408.224 349.005 409.324 353.297 407.178" stroke="#00ADB5" stroke-opacity="0.5" stroke-width="2" stroke-linecap="round" stroke-linejoin="round"/>
<path d="M366.99 402.965C368.291 409.736 369.543 416.502 370.676 423.299C370.87 424.463 370.61 423.504 370.267 422.861C368.113 418.821 365.163 411.623 365.264 407.091C365.359 402.797 371.266 399.869 374.363 402.965" stroke="#00ADB5" stroke-opacity="0.5" stroke-width="2" stroke-linecap="round" stroke-linejoin="round"/>
<path d="M383.843 410.865C383.706 415.821 387.301 433.172 395.838 428.127C397.061 427.404 400.079 425.638 400.168 424.031C400.216 423.174 398.657 422.978 398.062 422.978C396.497 422.978 396.106 421.037 395.429 419.818" stroke="#00ADB5" stroke-opacity="0.5" stroke-width="2" stroke-linecap="round" stroke-linejoin="round"/>
<path d="M381.209 412.445C385.822 407.673 391.01 401.099 395.107 409.607C396.306 412.098 395.888 415.099 394.902 417.594C393.308 421.625 387.601 423.215 389.109 417.185" stroke="#00ADB5" stroke-opacity="0.5" stroke-width="2" stroke-linecap="round" stroke-linejoin="round"/>
<path d="M409.648 402.965C413.257 408.733 427.855 424.281 418.279 431.375C415.215 433.644 413.215 433.634 409.765 433.51C404.894 433.336 407.468 432.102 409.121 428.244" stroke="#00ADB5" stroke-opacity="0.5" stroke-width="2" stroke-linecap="round" stroke-linejoin="round"/>
<path d="M431.766 400.859C430.676 402.178 416.594 415.792 425.154 417.243C428.309 417.778 431.209 415.867 434.107 417.799C439.336 421.285 438.097 426.01 433.288 428.975C430.884 430.458 428.202 431.235 425.681 432.457C424.256 433.148 425.774 431.147 425.973 430.351" stroke="#00ADB5" stroke-opacity="0.5" stroke-width="2" stroke-linecap="round" stroke-linejoin="round"/>
<path d="M419.654 395.066C418.431 395.964 405.264 403.271 407.132 407.705C409.487 413.299 410.266 406.413 410.701 404.019" stroke="#00ADB5" stroke-opacity="0.5" stroke-width="2" stroke-linecap="round" stroke-linejoin="round"/>
<path d="M95.9711 222.793C98.3166 217.263 97.3559 212.444 97.3559 206.712C97.3559 205.597 97.1536 202.201 98.3254 201.593C100.173 200.634 101.9 199.994 104.08 199.994C105.53 199.994 106.986 200.036 108.435 199.994C109.884 199.953 111.288 199.363 112.72 199.188C115.386 198.861 118.159 199.316 120.791 199.316C122.881 199.316 125.043 199.587 127.054 199.587C127.411 199.587 128.866 199.757 129.1 199.964C129.818 200.597 129.612 201.612 130.178 202.166" stroke="#00ADB5" stroke-opacity="0.5" stroke-linecap="round" stroke-linejoin="round"/>
<path d="M130.04 202.656C130.131 204.288 130.165 206.578 130.837 208.173C131.272 209.206 130.925 210.582 131.013 211.683C131.182 213.795 130.867 215.855 130.867 217.905C130.867 220.654 131.005 223.369 131.005 226.104C131.005 228.451 128.712 228.058 126.898 227.728C125.331 227.443 123.228 228.015 121.595 228.035C118.445 228.074 115.28 228.311 112.124 228.311C109.489 228.311 107.532 227.545 105.105 226.625C103.809 226.133 103.026 226.242 101.634 226.242C100.316 226.242 99.2314 226.036 97.9098 226.449C97.1366 226.69 95.7519 226.482 95.3121 225.69C94.7848 224.741 95.8332 224.329 95.8332 223.552C95.8332 222.9 95.7512 221.034 95.9711 222.794" stroke="#00ADB5" stroke-opacity="0.5" stroke-linecap="round" stroke-linejoin="round"/>
<path d="M111.695 206.242C111.695 206.242 112.247 206.518 112.799 207.07C113.35 207.483 114.512 207.277 115.488 207.277C116.002 207.277 116.545 206.876 117.005 206.671C117.939 206.256 117.382 207.037 117.159 207.483C116.911 207.978 117.194 208.898 117.641 209.208C118.38 209.719 119.111 209.278 119.833 208.916C120.133 208.766 120.051 208.697 120.143 208.901C120.269 209.178 120.247 209.58 120.247 209.882C120.247 210.569 120.202 211.712 119.833 212.311C119.348 213.099 118.858 213.609 118.078 214.188C117.308 214.761 116.29 215.759 115.266 215.759C113.265 215.759 111.141 215.323 110.14 213.376C109.715 212.551 108.937 211.875 108.937 210.932C108.937 210.144 108.676 209.201 108.937 208.449C109.252 207.537 110.04 206.671 109.764 206.671C109.905 206.711 111.143 205.966 111.695 206.242Z" stroke="#00ADB5" stroke-opacity="0.5" stroke-linecap="round" stroke-linejoin="round"/>
<path d="M113.971 205.759C114.747 205.472 116.519 204.87 116.936 203.932C117.259 203.206 116.193 203.07 115.626 203.07C114.938 203.07 114.123 204.02 113.94 204.621C113.839 204.956 113.742 205.298 113.642 205.637C113.593 205.8 113.658 205.918 113.691 206.07C113.717 206.185 114.769 205.632 114.73 205.474" stroke="#00ADB5" stroke-opacity="0.5" stroke-linecap="round" stroke-linejoin="round"/>
<path d="M127.908 221.273L97.3696 221.944C94.1392 222.015 91.5574 224.654 91.5574 227.885C91.5574 231.167 94.218 233.828 97.5002 233.828H128.04C131.353 233.828 134.04 231.142 134.04 227.828V227.272C134.04 223.906 131.272 221.199 127.908 221.273Z" stroke="#00ADB5" stroke-opacity="0.5"/>
<path d="M104.059 221.777C104.517 222.487 104.912 223.34 105.438 223.997C105.702 224.327 105.66 224.26 106.173 224.07C107.028 223.753 107.997 223.981 108.89 223.981C109.674 223.981 110.585 223.571 111.347 223.777C112.229 224.014 113.269 223.561 114.138 223.54C115.184 223.515 116.182 223.613 117.222 223.613C117.85 223.613 118.461 223.246 119.042 223.246C119.379 223.246 120.34 223.513 120.364 222.895C120.376 222.594 120.511 222.302 120.511 221.997C120.511 221.586 120.265 221.764 119.85 221.557" stroke="#00ADB5" stroke-opacity="0.5" stroke-linecap="round" stroke-linejoin="round"/>
<path d="M253.48 71.0062C254.046 70.2862 255.131 68.9538 253.611 68.7182C253.267 68.6649 252.945 68.4628 252.608 68.6158C251.568 69.0869 250.602 70.1242 250.602 71.3575C250.602 73.3274 252.763 73.7539 254.332 73.7284C256.98 73.6854 257.786 71.1056 258.721 69.0158C259.666 66.9049 260.715 64.8281 261.695 62.7323C262.804 60.3608 264.623 58.4717 265.774 56.1219C266.267 55.1143 266.911 54.227 267.547 53.307C268.532 51.8799 269.235 50.4402 269.94 48.8578C270.518 47.5596 271.159 46.3741 271.867 45.1453C272.154 44.6484 272.046 43.8871 272.594 44.4184C273.01 44.8217 273.672 45.0867 274.231 45.1892C276.678 45.6373 278.929 46.1116 281.449 45.9112C283.998 45.7085 286.545 45.3434 289.054 44.8574C289.907 44.6922 289.543 44.8911 289.141 45.4087C288.459 46.2866 287.876 47.217 287.223 48.1065C286.371 49.2666 286.071 50.6636 285.566 51.9898C285.012 53.4477 284.352 54.8402 283.822 56.3219C282.799 59.1856 281.306 61.7972 279.458 64.2007C278.387 65.5936 277.065 68.0264 275.06 67.9279C271.957 67.7755 274.052 61.6678 275.534 60.4735C276.332 59.8306 277.205 60.5228 277.302 61.3858C277.436 62.5717 277.029 64.1967 275.878 64.7764C274.664 65.388 273.733 65.3146 274.667 63.7373C275.233 62.7829 275.569 63.8332 275.801 63.3665" stroke="#00ADB5" stroke-opacity="0.5" stroke-width="2" stroke-linecap="round" stroke-linejoin="round"/>
<path d="M487.308 283.769C487.874 283.048 488.959 281.716 487.439 281.481C487.095 281.427 486.773 281.225 486.436 281.378C485.396 281.849 484.431 282.887 484.431 284.12C484.431 286.09 486.591 286.516 488.16 286.491C490.808 286.448 491.614 283.868 492.549 281.778C493.494 279.667 494.543 277.59 495.523 275.495C496.632 273.123 498.451 271.234 499.602 268.884C500.095 267.877 500.74 266.989 501.375 266.069C502.36 264.642 503.063 263.202 503.768 261.62C504.346 260.322 504.987 259.136 505.696 257.908C505.982 257.411 505.874 256.649 506.422 257.181C506.838 257.584 507.5 257.849 508.059 257.951C510.507 258.4 512.757 258.874 515.277 258.673C517.826 258.471 520.373 258.106 522.882 257.62C523.735 257.455 523.371 257.653 522.969 258.171C522.287 259.049 521.705 259.979 521.051 260.869C520.199 262.029 519.899 263.426 519.394 264.752C518.84 266.21 518.18 267.602 517.651 269.084C516.627 271.948 515.134 274.56 513.286 276.963C512.215 278.356 510.893 280.789 508.888 280.69C505.785 280.538 507.88 274.43 509.363 273.236C510.16 272.593 511.033 273.285 511.131 274.148C511.264 275.334 510.858 276.959 509.706 277.539C508.492 278.15 507.561 278.077 508.495 276.5C509.061 275.545 509.397 276.596 509.629 276.129" stroke="#00ADB5" stroke-opacity="0.5" stroke-width="2" stroke-linecap="round" stroke-linejoin="round"/>
<path d="M462.306 159.664C459.71 154.959 459.863 153.615 460.455 148.879C460.781 146.272 460.906 143.723 461.565 141.158C462.745 136.57 463.128 130.391 459.434 126.697C452.165 119.428 438.628 129.766 442.727 138.988C444.287 142.498 446.983 145.097 448.93 148.407C449.711 149.735 450.148 151.174 451.164 152.415C452.137 153.605 453.346 155.086 453.346 156.563C453.346 157.811 452.974 159.429 453.857 160.532C455.076 162.056 454.642 161.272 456.447 161.272C457.688 161.272 459.518 160.286 460.519 159.486C461.233 158.914 461.617 160.567 461.617 158.975C461.617 157.608 461.177 158.745 462.076 158.745" stroke="#00ADB5" stroke-opacity="0.5" stroke-linecap="round" stroke-linejoin="round"/>
<path d="M456.562 164.029C459.019 163.297 465.819 161.661 464.245 163.685C462.346 166.126 461.534 164.903 459.204 165.421C458.012 165.685 456.851 169.363 458.17 169.441C460.055 169.552 461.305 167.016 463.224 167.016C464.972 167.016 464.846 169.315 463.799 170.13C462.415 171.206 460.824 170.05 459.893 171.726C458.422 174.374 462.441 173.943 463.582 173.321C464.731 172.694 465.824 171.715 466.67 171.151" stroke="#00ADB5" stroke-opacity="0.5" stroke-linecap="round" stroke-linejoin="round"/>
<path d="M462.306 158.918C462.275 159.118 462.242 160.468 461.703 160.468C461.412 160.468 461.279 160.292 461.014 160.44C460.702 160.613 460.409 161.021 460.111 161.26C459.848 161.47 459.067 161.444 458.917 161.706C458.672 162.135 458.175 162.37 457.711 162.421C457.109 162.488 456.887 162.79 456.246 162.648C456.051 162.604 456.031 162.479 455.848 162.479C455.565 162.479 455.442 162.614 455.229 162.377C454.992 162.114 454.606 161.991 454.492 161.592C454.337 161.049 453.768 160.764 454.61 161.1" stroke="#00ADB5" stroke-opacity="0.5" stroke-linecap="round" stroke-linejoin="round"/>
<path d="M451.221 136.174C452.249 136.179 453.098 136.246 453.448 137.335C453.686 138.077 453.691 138.805 453.691 139.575C453.691 140.324 453.231 140.926 453.231 141.63C453.231 142.561 453.976 142.409 454.606 142.693C455.202 142.961 455.633 143.184 455.956 143.784C456.276 144.377 456.034 145.525 455.991 146.171C455.954 146.726 455.69 147.906 456.074 148.375C456.283 148.63 457.423 149.024 456.677 148.465" stroke="#00ADB5" stroke-opacity="0.5" stroke-linecap="round" stroke-linejoin="round"/>
<path d="M442.548 146.569C441.725 147.116 440.887 147.574 439.967 147.919C439.581 148.064 439.073 148.322 439.16 147.718" stroke="#00ADB5" stroke-opacity="0.5" stroke-linecap="round" stroke-linejoin="round"/>
<path d="M439.562 138.643C438.104 138.995 436.655 139.39 435.21 139.779C434.969 139.844 435.521 139.236 435.542 139.218" stroke="#00ADB5" stroke-opacity="0.5" stroke-linecap="round" stroke-linejoin="round"/>
<path d="M439.16 131.12C437.65 130.9 436.144 130.628 434.642 130.36C433.95 130.237 433.657 130.328 434.048 129.741" stroke="#00ADB5" stroke-opacity="0.5" stroke-linecap="round" stroke-linejoin="round"/>
<path d="M447.315 123.136C446.122 122.927 445.088 122.725 444.01 122.185C443.505 121.933 443.019 121.63 442.491 121.426C441.863 121.184 441.85 121.258 442.548 120.839" stroke="#00ADB5" stroke-opacity="0.5" stroke-linecap="round" stroke-linejoin="round"/>
<path d="M457.711 117.967C457.885 119.186 457.828 119.916 457.335 121.021C457.069 121.616 456.844 122.369 456.713 123.012C456.667 123.233 456.642 123.359 456.492 123.526C456.436 123.588 456.642 122.848 456.677 122.734" stroke="#00ADB5" stroke-opacity="0.5" stroke-linecap="round" stroke-linejoin="round"/>
<path d="M466.498 122.849C466.117 124.118 465.574 125.336 465.248 126.608C465.083 127.251 465.186 127.29 465.465 126.64" stroke="#00ADB5" stroke-opacity="0.5" stroke-linecap="round" stroke-linejoin="round"/>
<path d="M470.174 131.981C468.869 133.11 467.799 134.512 466.786 135.899C466.659 136.073 466.512 136.135 466.371 136.276C466.051 136.596 466.603 135.873 466.671 135.772" stroke="#00ADB5" stroke-opacity="0.5" stroke-linecap="round" stroke-linejoin="round"/>
<path d="M177.734 247.189C179.644 255.791 181.794 264.412 183.057 273.144C183.763 278.022 182.213 270.983 182.021 269.988C181.604 267.834 181.126 265.926 181.126 263.723C181.126 259.29 181.007 254.807 180.678 250.369C180.448 247.262 176.632 238.011 181.455 245.729C186.374 253.598 189.846 262.299 193.185 270.883C193.645 272.066 194.282 273.187 194.786 274.322C195.062 274.942 189.899 269.896 187.909 268.811" stroke="#00ADB5" stroke-opacity="0.5" stroke-width="2" stroke-linecap="round" stroke-linejoin="round"/>
<path d="M174.766 266.267C180.278 264.067 192.431 259.919 195.964 253.737C197.444 251.147 197.156 252.344 192.996 253.124" stroke="#00ADB5" stroke-opacity="0.5" stroke-width="2" stroke-linecap="round" stroke-linejoin="round"/>
<path d="M191.301 237.438C195.554 245.858 198.635 254.824 199.803 264.171C199.911 265.037 200.112 265.987 200.722 266.597C200.835 266.71 198.682 262.679 198.084 261.603" stroke="#00ADB5" stroke-opacity="0.5" stroke-width="2" stroke-linecap="round" stroke-linejoin="round"/>
<path d="M191.301 237.014C194.599 238.99 206.713 246.287 198.814 250.934C198.121 251.342 197.308 251.718 196.812 252.371C195.762 253.752 195.636 254.157 196.388 252.276" stroke="#00ADB5" stroke-opacity="0.5" stroke-width="2" stroke-linecap="round" stroke-linejoin="round"/>
<path d="M202.323 232.775C203.728 242.293 206.139 252.752 206.139 262.451C206.139 264.592 205.781 260.627 205.291 259.484" stroke="#00ADB5" stroke-opacity="0.5" stroke-width="2" stroke-linecap="round" stroke-linejoin="round"/>
<path d="M212.074 249.733C214.402 256.671 215.598 260.76 208.777 262.781C206.446 263.472 209.262 260.086 209.86 259.672C211.901 258.259 213.933 253.711 211.65 251.428C210.742 250.52 208.568 251.667 207.929 250.581C206.986 248.979 209.098 245.945 210.378 245.163C214.059 242.914 213.596 246.084 212.074 245.069" stroke="#00ADB5" stroke-opacity="0.5" stroke-width="2" stroke-linecap="round" stroke-linejoin="round"/>
<path d="M339.425 120.985C340.831 128.379 346.616 149.97 343.25 143.238C342.888 142.513 342.585 141.898 342.555 141.075C342.442 138.03 342.215 134.847 341.164 131.957C340.285 129.54 340.469 127.034 340.469 124.462C340.469 123.947 339.593 119.892 339.677 119.865C340.562 119.57 344.213 124.006 344.873 124.771C348.211 128.639 351.586 133.084 353.971 137.617C355.199 139.95 355.569 140.786 352.638 141.152" stroke="#00ADB5" stroke-opacity="0.5" stroke-width="2" stroke-linecap="round" stroke-linejoin="round"/>
<path d="M339.078 135.936C342.341 134.281 345.449 132.958 348.814 131.764" stroke="#00ADB5" stroke-opacity="0.5" stroke-width="2" stroke-linecap="round" stroke-linejoin="round"/>
<path d="M348.466 121.333C351.807 126.337 354.989 131.663 358.878 136.284C359.433 136.943 360.597 138.14 360.597 136.593C360.597 134.482 359.428 132.3 358.897 130.296C358.049 127.09 357.259 123.869 356.541 120.637C355.847 117.517 356.336 118.682 357.507 121.024C359.447 124.903 361.489 128.437 364.19 131.88C366.01 134.199 366.199 132.908 366.199 130.875C366.199 127.184 364.397 124.148 363.07 120.83C361.652 117.286 361.747 112.448 360.134 109.221C359.506 107.966 359.419 111.943 359.245 113.335" stroke="#00ADB5" stroke-opacity="0.5" stroke-width="2" stroke-linecap="round" stroke-linejoin="round"/>
<path d="M367.242 108.815C367.331 109.224 368.626 119.347 370.913 118.203C371.915 117.702 372.16 116.169 373.192 115.653C374.864 114.818 376.671 116.298 377.326 117.74C379.059 121.552 377.064 125.967 373.926 128.287C369.579 131.5 371.067 125.716 371.067 124.114" stroke="#00ADB5" stroke-opacity="0.5" stroke-width="2" stroke-linecap="round" stroke-linejoin="round"/>
<path d="M369.329 108.12C368.703 109.83 367.565 117.768 367.223 114.688C367.012 112.786 367.387 111.34 367.59 109.511C368.072 105.172 371.393 108.662 370.024 106.381" stroke="#00ADB5" stroke-opacity="0.5" stroke-width="2" stroke-linecap="round" stroke-linejoin="round"/>
<path d="M346.14 336.508C346.024 336.295 341.008 327.657 341.442 327.408C342.044 327.064 343.167 327.399 343.876 327.133C345.969 326.348 347.655 324.728 349.378 323.388C351.19 321.978 353.672 333.036 354.224 335.365C354.891 338.183 356.629 341.929 353.377 343.555C350.446 345.021 346.589 344.578 343.389 344.507C338.168 344.391 334.56 335.821 333.951 331.556C333.507 328.451 329.207 318.483 333.824 316.489C335.06 315.955 337.16 316.32 338.501 316.32C340.419 316.32 342.094 315.177 344.045 315.177C347.149 315.177 348.088 319.055 345.378 314.796" stroke="#00ADB5" stroke-opacity="0.5" stroke-width="2" stroke-linecap="round" stroke-linejoin="round"/>
<path d="M354.901 317.843C355.442 319.815 357.183 330.762 361.757 327.959C362.628 327.425 363.261 326.131 363.577 325.208C364.42 322.742 364.597 320.683 362.709 318.796C361.295 317.381 358.564 314.494 356.509 314.415C351.413 314.219 355.909 319.927 355.282 318.986" stroke="#00ADB5" stroke-opacity="0.5" stroke-width="2" stroke-linecap="round" stroke-linejoin="round"/>
<path d="M355.663 300.321C359.425 306.27 365.102 312.812 367.386 319.663C367.677 320.537 367.688 321.131 368.233 321.949C369.055 323.182 369.444 324.972 370.222 323.091C371.349 320.368 373.917 317.951 375.936 315.854C378.426 313.268 378.767 314.034 374.327 314.034" stroke="#00ADB5" stroke-opacity="0.5" stroke-width="2" stroke-linecap="round" stroke-linejoin="round"/>
<path d="M381.946 298.417C381.473 299.484 374.297 313.685 381.226 310.458C382.605 309.816 384.011 308.817 383.829 307.178C383.653 305.598 382.334 304.356 381.649 302.988C381.263 302.214 379.717 298.489 380.253 299.559C381.844 302.741 383.98 308.408 386.347 310.775C389.105 313.533 390.757 310.635 388.04 309.082" stroke="#00ADB5" stroke-opacity="0.5" stroke-width="2" stroke-linecap="round" stroke-linejoin="round"/>
<path d="M386.136 299.94C396.738 316.758 383.322 297.888 386.411 294.586C389.4 291.391 392.931 297.527 394.05 299.475C395.999 302.868 397.918 311.671 394.897 302.607" stroke="#00ADB5" stroke-opacity="0.5" stroke-width="2" stroke-linecap="round" stroke-linejoin="round"/>
<path d="M399.468 285.466C399.288 286.101 393.601 302.105 397.859 300.618C399.669 299.986 401.486 298.555 402.451 296.914C403.565 295.02 404.084 292.423 403.277 290.333C402.726 288.908 402.131 287.386 401.372 286.058C399.569 282.904 404.428 292.652 405.88 295.983C408.006 300.86 413.128 317.959 401.055 314.563C395.789 313.082 400.748 304.892 400.229 304.892" stroke="#00ADB5" stroke-opacity="0.5" stroke-width="2" stroke-linecap="round" stroke-linejoin="round"/>
<path d="M249.549 206.765C251.442 206.245 253.056 205.721 254.387 204.223C254.912 203.633 254.983 202.879 255.251 202.164C255.6 201.235 255.166 200.046 254.868 199.154C254.631 198.441 255.93 198.041 256.394 198.011C257.191 197.96 257.801 198.467 258.567 198.512C259.488 198.566 260.47 198.861 261.109 199.58C261.542 200.067 262.123 200.182 262.602 200.605C263.057 201.006 263.416 201.706 263.745 202.22C264.697 203.707 264.966 205.442 265.243 207.143C265.375 207.959 265.456 208.846 265.318 209.67C265.154 210.654 265.329 211.6 264.94 212.543C264.672 213.194 264.243 214.057 263.632 214.442C263.005 214.837 262.422 214.979 262.262 215.798C261.927 217.508 262.786 219.183 262.455 220.909C262.162 222.442 260.136 222.676 258.884 222.922C258.019 223.091 256.448 223.356 255.615 222.903C254.063 222.059 252.939 221.005 251.788 219.662C250.769 218.472 250.383 216.733 250.248 215.212C250.111 213.659 250.109 211.973 250.144 210.403C250.167 209.361 250.471 208.314 250.569 207.275C250.65 206.425 250.92 206.357 250.484 207.445" stroke="#00ADB5" stroke-opacity="0.5" stroke-linecap="round" stroke-linejoin="round"/>
<path d="M260.519 199.027C261.158 197.378 261.861 195.73 262.352 194.029C262.572 193.265 262.625 192.455 262.9 191.709C263.219 190.842 263.377 189.862 263.514 188.955C263.612 188.305 263.66 187.154 264.255 186.744C264.69 186.445 264.938 185.762 265.403 185.402C266.001 184.941 266.851 184.512 267.274 183.895C267.69 183.29 268.134 182.04 267.784 181.34C267.59 180.951 267.617 180.532 267.425 180.149C267.176 179.651 266.952 179.247 266.764 178.708C266.599 178.237 266.08 177.295 266.684 176.96C268.159 176.141 268.262 177.431 268.72 178.609C268.956 179.218 268.992 179.961 269.211 180.593C269.361 181.026 269.627 180.713 269.83 180.962C270.136 181.336 270.151 181.804 270.383 182.209C270.729 182.815 270.322 184.044 270.146 184.637C269.821 185.735 269.486 186.729 269.003 187.783C267.76 190.499 265.734 192.786 264.345 195.418C263.816 196.419 263.393 197.428 263.136 198.536C262.989 199.165 262.559 199.765 262.559 200.43C262.559 201.037 262.409 201.348 262.729 200.387" stroke="#00ADB5" stroke-opacity="0.5" stroke-linecap="round" stroke-linejoin="round"/>
<path d="M267.151 178.534C266.068 178.7 264.887 178.763 263.92 179.247C263.787 179.313 263.993 179.14 264.09 179.129C265.386 178.976 266.802 177.82 267.983 177.258C268.861 176.84 270.062 175.898 271.063 175.898C271.353 175.898 270.099 176.705 269.957 176.833" stroke="#00ADB5" stroke-opacity="0.5" stroke-linecap="round" stroke-linejoin="round"/>
<path d="M266.046 180.404C267.251 179.704 269.35 178.944 270.231 177.768C270.317 177.654 270.38 177.5 270.505 177.428C270.943 177.178 270.169 177.457 270.042 177.513" stroke="#00ADB5" stroke-opacity="0.5" stroke-linecap="round" stroke-linejoin="round"/>
<path d="M266.896 181.51C268.342 180.956 270.986 180.464 271.781 178.874C271.896 178.644 271.641 178.704 271.488 178.704" stroke="#00ADB5" stroke-opacity="0.5" stroke-linecap="round" stroke-linejoin="round"/>
<path d="M268.427 181.34C268.334 183.29 268.354 185.273 267.241 186.943C266.698 187.757 266.322 188.299 266.131 189.253C265.927 190.272 265.703 191.123 265.238 192.054C264.779 192.972 264.24 193.724 263.788 194.605C263.553 195.062 262.976 195.502 263.088 196.051C263.145 196.328 263.008 196.576 262.918 196.835C262.653 197.603 262.156 198.279 261.69 198.942C261.374 199.392 261.378 200.2 261.794 199.367" stroke="#00ADB5" stroke-opacity="0.5" stroke-linecap="round" stroke-linejoin="round"/>
<path d="M261.539 197.071C262.306 197.238 263.473 197.751 264.26 197.751C264.274 197.751 263.591 196.927 263.495 196.816" stroke="#00ADB5" stroke-opacity="0.5" stroke-linecap="round" stroke-linejoin="round"/>
<path d="M262.049 193.585C263.134 194.048 264.221 194.507 265.299 194.988C265.552 195.1 265.537 195.117 265.45 195.03C265.264 194.843 265.105 194.641 264.94 194.435" stroke="#00ADB5" stroke-opacity="0.5" stroke-linecap="round" stroke-linejoin="round"/>
<path d="M263.07 191.289C264.377 191.695 265.682 192.133 267.005 192.489C267.153 192.529 267.36 192.608 267.217 192.46C266.932 192.165 266.604 191.905 266.301 191.629" stroke="#00ADB5" stroke-opacity="0.5" stroke-linecap="round" stroke-linejoin="round"/>
<path d="M263.75 188.398C265.238 189.125 266.72 189.909 268.247 190.557C268.498 190.663 268.582 190.741 268.531 190.542C268.461 190.273 268.357 190.018 268.257 189.758" stroke="#00ADB5" stroke-opacity="0.5" stroke-linecap="round" stroke-linejoin="round"/>
<path d="M265.62 186.357C265.756 186.422 269.873 188.655 269.532 187.802" stroke="#00ADB5" stroke-opacity="0.5" stroke-linecap="round" stroke-linejoin="round"/>
<path d="M266.471 184.996C267.713 185.288 268.969 185.554 270.212 185.762" stroke="#00ADB5" stroke-opacity="0.5" stroke-linecap="round" stroke-linejoin="round"/>
<path d="M267.832 183.636C268.399 183.663 268.965 183.691 269.532 183.721" stroke="#00ADB5" stroke-opacity="0.5" stroke-linecap="round" stroke-linejoin="round"/>
<path d="M256.607 209.146C256.016 209.381 252.377 210.286 252.355 211.291C252.347 211.684 252.355 212.077 252.402 212.467C252.549 213.678 253.392 214.312 254.424 214.891C255.737 215.626 257.151 215.649 258.582 215.231C259.942 214.833 260.826 213.329 260.282 212.037C260.169 211.769 260.56 211.715 260.306 211.404C260.059 211.102 259.896 211.277 259.498 211.357" stroke="#00ADB5" stroke-opacity="0.5" stroke-linecap="round" stroke-linejoin="round"/>
<path d="M254.821 212.292C255.498 210.581 256.342 208.87 256.735 207.063C256.837 206.589 256.964 206.191 257.221 205.764C257.763 204.86 258.241 203.895 258.563 202.891C258.868 201.938 258.888 200.998 259.29 200.066C259.434 199.734 260.291 198.737 259.923 199.197" stroke="#00ADB5" stroke-opacity="0.5" stroke-linecap="round" stroke-linejoin="round"/>
<path d="M261.539 200.047C261.223 202.017 260.749 203.902 260.415 205.849C260.229 206.928 259.923 207.83 259.923 208.967C259.923 209.779 260.213 210.457 260.027 211.272C259.813 212.21 259.62 211.748 259.243 211.102" stroke="#00ADB5" stroke-opacity="0.5" stroke-linecap="round" stroke-linejoin="round"/>
<path d="M260.689 200.047C260.097 201.277 258.818 203.299 258.818 204.852C258.818 205.735 258.875 206.672 258.813 207.568C258.74 208.634 257.908 210.015 257.41 210.932C257.245 211.236 257.03 211.471 256.928 211.801C256.801 212.213 256.892 212.238 256.607 211.782" stroke="#00ADB5" stroke-opacity="0.5" stroke-linecap="round" stroke-linejoin="round"/>
<path d="M254.566 210.507C256.014 211.543 258.571 213.657 260.349 211.829C260.626 211.544 261.026 210.936 261.18 210.573C261.39 210.076 260.71 210.498 260.263 210.592" stroke="#00ADB5" stroke-opacity="0.5" stroke-linecap="round" stroke-linejoin="round"/>
<path d="M256.267 208.976C257.093 208.95 258.762 209.173 259.564 208.759C259.591 208.745 259.503 208.768 259.479 208.787C259.4 208.85 259.236 208.747 259.158 208.721" stroke="#00ADB5" stroke-opacity="0.5" stroke-linecap="round" stroke-linejoin="round"/>
<path d="M257.202 205.83C257.808 205.99 260.001 206.924 260.093 205.915" stroke="#00ADB5" stroke-opacity="0.5" stroke-linecap="round" stroke-linejoin="round"/>
<path d="M258.223 203.279C258.974 203.769 262.023 206.04 261.539 203.619" stroke="#00ADB5" stroke-opacity="0.5" stroke-linecap="round" stroke-linejoin="round"/>
<path d="M259.073 202.088C259.838 202.287 260.603 202.485 261.369 202.683" stroke="#00ADB5" stroke-opacity="0.5" stroke-linecap="round" stroke-linejoin="round"/>
<path d="M262.814 202.088C263.761 202.98 265.65 205.054 265.706 206.614C265.751 207.886 265.706 209.116 265.706 210.403C265.706 211.339 265.884 212.338 265.791 213.228C265.668 214.396 263.874 214.411 264.303 215.783C264.446 216.242 264.321 216.513 264.723 216.842C265.07 217.125 265.322 217.455 265.45 217.905C265.751 218.955 265.153 219.903 264.43 220.626C263.978 221.078 263.391 221.987 262.857 222.284C262.593 222.43 262.054 222.326 261.751 222.326C261.471 222.326 260.904 222.509 260.651 222.624C260.278 222.794 259.802 222.494 259.328 222.667" stroke="#00ADB5" stroke-opacity="0.5" stroke-linecap="round" stroke-linejoin="round"/>
<path d="M249.549 207.02C249.892 208.159 250.147 209.106 250.721 210.081C250.956 210.482 250.924 210.846 250.82 211.314C250.699 211.859 250.301 213.136 250.612 213.695C251.09 214.555 251.08 215.465 251.08 216.417C251.08 217.334 252.513 217.732 252.984 218.202C253.682 218.901 253.379 219.792 254.528 220.097C254.78 220.163 255.173 220.167 255.369 220.328C255.518 220.45 255.693 220.755 255.889 220.791C256.294 220.865 256.836 220.784 257.202 220.947C257.508 221.083 257.731 221.279 258.01 221.434C258.317 221.604 258.738 221.412 259.073 221.58C260.216 222.152 259.706 221.608 258.903 220.966" stroke="#00ADB5" stroke-opacity="0.5" stroke-linecap="round" stroke-linejoin="round"/>
<path d="M164.926 164.311C162.654 167.219 152.898 178.853 161.211 181.486C163.791 182.303 167.148 180.424 169.929 180.696C173.861 181.079 176.072 184.422 177.039 187.893C178.153 191.89 172.007 198.998 174.962 201.147C180.022 204.827 187.31 198.604 191.492 203.546C193.862 206.347 191.37 210.417 192.838 203.809" stroke="#00ADB5" stroke-opacity="0.5" stroke-linecap="round" stroke-linejoin="round"/>
<path d="M279.041 119.02C281.231 121.922 286.443 128.459 288.404 132.186C290.072 135.359 287.969 135.232 286.18 133.971C284.04 132.464 284.341 129.258 284.951 127.037C287.013 119.541 300.356 112.649 301.862 124.17C302.391 128.217 298.774 135.021 293.846 133.415C287.339 131.295 287.754 121.365 292.675 117.675C297.709 113.899 305.958 118.237 305.958 124.404C305.958 131.25 297.821 133.37 294.665 127.33C291.796 121.84 296.879 116.097 302.33 115.275C304.335 114.973 309.514 117.289 305.9 118.494" stroke="#00ADB5" stroke-opacity="0.5" stroke-linecap="round" stroke-linejoin="round"/>
<path d="M389.108 171.158C385.698 174.546 374.921 182.447 383.988 185.523C389.264 187.313 394.148 184.379 397.418 180.374C401.025 175.955 401.637 168.966 395.896 166.096C391.431 163.864 387.584 160.278 383.842 165.891" stroke="#00ADB5" stroke-opacity="0.5" stroke-linecap="round" stroke-linejoin="round"/>
<path d="M505.496 217.502C498.984 221.381 489.096 226.066 499.176 229.732C500.726 230.295 501.734 229.928 503.097 228.971C508.136 225.43 508.432 224.012 508.129 218.555C507.929 214.942 502.645 215.768 500.23 216.975C496.667 218.756 494.183 222.321 492.74 225.928C490.798 230.782 500.835 230.485 502.219 224.641C503.087 220.977 498.896 215.773 496.017 220.252C492.201 226.187 498.023 231.494 501.693 225.285C505.207 219.337 496.995 216.884 494.788 223.822C491.885 232.944 509.139 223.039 502.863 219.901C499.122 218.031 492.805 229.908 499.703 226.952C508.078 223.363 498.708 218.073 498.708 226.455C498.708 233.257 509.958 223.385 502.629 220.72C500.953 220.111 499.299 225.466 500.493 226.66C502.569 228.736 506.178 223.359 505.993 221.423C505.202 213.112 497.066 234.241 506.754 224.553C508.967 222.34 508.876 218.34 505.203 220.691C503.036 222.078 501.665 227.966 505.759 226.601C509.692 225.29 509.691 218.007 505.467 219.696C502.889 220.728 501.955 224.377 499.176 223.822" stroke="#00ADB5" stroke-opacity="0.5" stroke-linecap="round" stroke-linejoin="round"/>
<path d="M448.619 271.746C447.532 272.946 430.179 294.357 438.905 283.449C440.901 280.954 442.734 278.5 445.459 276.749C447.138 275.669 448.756 275.003 450.199 273.56C451.775 271.983 449.54 272.087 449.175 275.374C448.857 278.236 449.1 290.733 448.619 290.705C445.366 290.514 443.233 287.312 440.222 286.258C438.609 285.693 433.826 286.506 435.16 285.438C438.422 282.829 448.413 275.346 445.459 278.3C443.221 280.537 438.622 288.947 440.193 286.199C441.309 284.245 444.328 277.879 443.879 278.943C442.953 281.136 441.342 284.893 441.48 287.311C441.611 289.606 446.17 283.958 446.454 283.39C448.567 279.164 444.195 288.668 445.752 286.404C447.154 284.364 451.894 279.179 448.502 284.268C447.759 285.382 452.016 280.244 451.252 281.342C451.03 281.661 449.101 284.898 450.228 283.771C454.266 279.733 448.316 283.931 447.565 282.805" stroke="#00ADB5" stroke-opacity="0.5" stroke-linecap="round" stroke-linejoin="round"/>
<path d="M413.334 359.168C415.177 356.543 425.712 344.961 417.05 344.451C415.586 344.365 412.567 343.89 411.344 344.89C408.437 347.269 409.698 353.685 413.627 354.399C418.837 355.346 423.719 348.222 418.074 345.475C412.176 342.606 398.254 354.131 404.264 358.875C416.097 368.217 426.797 341.07 411.491 344.978C397.607 348.523 409.838 362.823 416.143 353.609C422.893 343.744 402.079 343.659 405.756 354.692C407.57 360.133 413.523 357.507 414.592 353.112C416.159 346.668 409.751 349.329 409.648 353.785C409.536 358.56 416.894 349.92 412.486 350.303C409.3 350.58 408.985 354.955 406.488 354.955" stroke="#00ADB5" stroke-opacity="0.5" stroke-linecap="round" stroke-linejoin="round"/>
<path d="M203.732 309.664C204.795 314.489 206.891 329.088 206.891 324.146C206.891 320.735 204.286 317.552 203.761 314.14C203.577 312.948 203.956 309.422 202.942 308.611C202.248 308.056 208.806 313.16 210.549 314.14C213.729 315.929 216.009 319.271 218.77 315.72C220.096 314.016 223.996 313.78 224.534 313.35C228.433 310.231 228.076 305.575 228.981 301.501C229.304 300.048 228.484 306.462 228.484 308.347C228.484 310.759 228.919 313.953 229.566 316.218C230.485 319.434 230.117 310.357 229.244 308.611C227.826 305.774 227.957 303.257 227.957 300.184C227.957 298.971 236.761 314.179 235.213 315.34C234.566 315.825 225.945 313.447 223.334 314.287C221.085 315.01 219.031 315.853 216.898 316.92C216.314 317.211 215.352 318.273 215.727 317.973C217.064 316.903 221.155 313.979 219.531 314.521C217.299 315.265 215.108 317.424 213.094 318.617C209.298 320.866 208.07 320.552 206.482 324.41C206.253 324.966 209.086 324.895 209.642 325.053C213.627 326.192 216.132 323.088 219.648 321.66C224.186 319.816 229.403 316.03 234.277 315.457C237.955 315.024 232.362 313.734 232.17 313.35" stroke="#00ADB5" stroke-opacity="0.5" stroke-linecap="round" stroke-linejoin="round"/>
<path d="M404.908 106.908C414.833 103.726 430.908 100.067 439.783 92.8056C441.393 91.488 443.887 90.2249 443.323 87.6855C441.203 78.1454 436.59 75.908 427.495 76.9186C422.45 77.4792 417.607 82.1327 412.924 84.0283C408.103 85.9798 403.279 88.5438 398.881 91.3427C394.429 94.1755 397.008 95.5788 397.008 100.471C397.008 103.161 398.615 106.908 401.484 106.908C402.792 106.908 406.541 105.855 402.83 105.855C399.918 105.855 395.397 106.296 392.795 104.918C390.808 103.866 394.73 101.795 395.662 101.671C398.991 101.227 391.848 104.483 391.127 104.714C389.645 105.188 396.476 100.011 392.678 101.232C388.561 102.555 394.671 99.0064 395.955 98.3646C397.404 97.6401 396.14 98.7871 396.481 98.189C397.028 97.2321 400.193 93.7164 397.33 96.5798C396.371 97.5385 399.494 94.9448 400.548 94.0929C402.535 92.4886 400.014 94.9227 399.524 95.3218C397.265 97.1605 396.736 95.6768 394.901 96.4921C394.135 96.8329 392.268 97.9632 392.268 96.6384C392.268 94.3526 400.333 93.3114 401.806 93.2445C410.827 92.8344 417.14 88.8553 425.447 86.7785C429.444 85.7791 433.813 84.3398 437.559 82.5654C440.338 81.2494 445.903 77.1292 448.853 77.9719C450.012 78.3031 432.129 88.7084 437.267 85.3156C441.517 82.5091 446.39 80.5383 440.017 85.813C434.911 90.0386 443.893 85.1166 444.61 85.4034C445.898 85.9185 436.681 91.183 443.703 87.9488C446.389 86.7119 448.619 86.6508 448.619 83.7357C448.619 79.7787 449.701 75.0887 444.669 76.9186C438.862 79.0303 434.201 83.5438 428.197 85.3156C424.058 86.537 420.025 88.0795 415.967 89.5287C411.258 91.2104 402.735 93.0908 399.378 97.1943C397.589 99.3811 394.402 107.904 400.987 104.216C407.028 100.833 407.989 93.9889 411.227 88.5925C412.836 85.9121 408.425 94.2537 407.775 97.3113C407.028 100.828 410.337 104.875 414.124 104.216C418.278 103.494 422.647 97.7573 424.13 94.2685C431.257 77.4999 418.33 93.7638 421.994 97.4283C425.883 101.317 431.809 91.0151 432.585 88.4755C433.52 85.4154 434.07 81.6434 435.189 78.7326C436.641 74.9575 427.371 79.2093 426.5 79.6396C421.678 82.0227 418.311 85.2016 415.031 89.4117C413.843 90.9356 409.077 98.1087 412.339 99.7397C416.711 101.925 422.077 95.1316 422.199 91.606C422.611 79.663 412.777 85.7839 406.839 90.465C403.169 93.3575 406.357 99.1387 407.014 98.4816" stroke="#00ADB5" stroke-opacity="0.5" stroke-linecap="round" stroke-linejoin="round"/>
<path d="M271.668 392.346C271.439 392.529 262.774 400.003 262.774 397.876C262.774 396.63 263.733 395.296 264.588 394.482C266.278 392.872 272.954 391.634 271.346 395.565C270.268 398.201 265.86 402.087 264.617 397.115C264.101 395.051 267.644 390.908 269.796 392.668C272.168 394.609 267.068 397.082 265.465 396.208C262.604 394.647 266.04 389.09 268.801 390.24C271.688 391.443 267.717 394.731 266.402 395.389C263.326 396.927 263.756 394.441 262.189 392.873" stroke="#00ADB5" stroke-opacity="0.5" stroke-linecap="round" stroke-linejoin="round"/>
<path d="M128.949 391.82C131.985 396.822 137.767 402.013 131.875 406.566C130.355 407.74 121.39 412.435 121.927 406.975C122.581 400.326 132.49 400.178 133.103 394.219C133.71 388.325 119.635 390.546 116.427 386.553C114.417 384.052 112.796 378.509 113.267 375.318C113.45 374.075 116.602 371.663 116.28 373.914C115.692 378.034 102.407 388.588 110.282 392.054C115.563 394.377 116.925 388.494 120.815 387.08C128.828 384.166 116.836 405.777 116.836 400.246" stroke="#00ADB5" stroke-opacity="0.5" stroke-linecap="round" stroke-linejoin="round"/>
<path d="M387.002 460.283C384.563 466.054 379.629 483.84 379.629 477.574C379.629 476.597 379.818 475.825 380.156 474.912C381.741 470.621 383.577 466.628 386.241 462.857C387.696 460.799 389.429 454.772 391.508 459.346C392.478 461.48 395.253 467.422 394.082 469.762C392.614 472.7 388.054 474.385 385.013 474.502C384.22 474.532 375.913 475.624 378.605 473.156C381.769 470.256 384.83 461.436 389.606 460.839C390.343 460.746 391.884 461.239 392.532 461.599C393.673 462.233 392.283 463.378 391.742 464.262C391.093 465.322 385.959 472.483 385.949 472.161C385.803 467.362 390.727 460.395 393.38 456.772C394.332 455.473 389.269 464.291 388.114 466.281C387.22 467.82 388.386 471.092 384.369 470.289" stroke="#00ADB5" stroke-opacity="0.5" stroke-linecap="round" stroke-linejoin="round"/>
<path d="M223.744 36.8648C221.394 46.0569 219.301 54.8151 218.448 64.1915C218.363 65.1294 217.77 65.7358 218.36 66.4736C219.239 67.5717 221.562 60.5897 222.457 58.7203C225.29 52.7949 228.484 50.4566 228.484 43.1844C228.484 42.1351 228.484 36.0956 228.484 40.0831C228.484 43.4685 229.125 46.8144 228.893 50.2063C228.718 52.77 226.257 59.6889 228.074 57.8718C230.879 55.0672 228.632 41.0049 224.241 40.639C218.248 40.1396 215.359 53.129 214.674 57.1696C213.877 61.8708 217.192 63.839 220.847 60.1832C225.837 55.1934 226.919 44.9347 222.632 39.0884C216.742 31.0564 212.877 45.5488 212.392 49.0945C211.295 57.1151 215.775 59.6853 221.081 53.9806C223.033 51.8824 226.968 48.2543 226.143 44.9984C225.045 40.6676 218.644 44.8731 217.366 46.7539C215.553 49.4209 215.577 56.064 218.507 57.9596C221.242 59.7295 223.904 52.3957 223.598 50.5574C222.298 42.7611 207.602 55.1374 214.908 59.5688C221.267 63.4256 225.482 46.1709 217.658 48.3046C215.48 48.8987 210.305 54.7705 214.791 54.7705" stroke="#00ADB5" stroke-opacity="0.5" stroke-linecap="round" stroke-linejoin="round"/>
<path d="M84.1844 186.957C81.8179 193.662 80.1142 197.942 74.1198 201.703C72.6147 202.647 70.6257 204.318 70.3163 206.209C69.6552 210.249 76.0278 214.701 79.6495 213.494C87.2807 210.95 75.733 203.397 74.5001 201.205C72.3535 197.389 80.1119 190.534 83.687 192.545C86.4699 194.111 87.7036 199.566 86.0569 202.229C83.6581 206.11 78.5021 206.263 74.4709 205.653C71.2604 205.166 64.8296 205.828 66.7176 210.597C69.08 216.565 80.2299 213.437 81.9023 208.374C83.5306 203.444 74.7155 201.586 76.6067 196.963C77.9057 193.788 82.0073 189.824 85.6473 189.824C90.0074 189.824 85.6532 197.969 85.0036 199.245C82.1353 204.883 77.7467 205.445 72.1888 206.969C61.7281 209.837 72.9973 210.241 73.6516 206.969" stroke="#00ADB5" stroke-opacity="0.5" stroke-linecap="round" stroke-linejoin="round"/>
<path d="M71.545 259.107C70.427 263.316 67.1217 270.501 67.4489 275.081C67.6022 277.228 68.1885 270.84 68.4436 268.703C68.9297 264.632 69.4858 260.034 71.662 256.473C72.0482 255.841 80.9802 266.991 81.7852 268.82C83.9395 273.716 81.2423 272.784 77.8646 274.379C75.9874 275.266 63.1772 279.787 63.1772 278.592C63.1772 277.34 65.5923 274.795 66.1615 273.735C67.9434 270.42 69.8551 266.258 70.6087 262.559C72.2182 254.658 71.0183 270.917 71.0183 272.155C71.0183 272.907 71.3104 277.305 69.5554 277.305C67.359 277.305 71.0403 273.171 71.779 271.102C72.5624 268.909 75.6807 262.444 74.9096 260.131C73.8175 256.854 73.2711 266.89 73.1541 270.341C73.0748 272.681 71.9428 276.586 73.7685 272.799C74.3503 271.592 76.2283 266.645 76.1969 267.006C75.9322 270.051 74.7048 273.19 74.7048 276.252C74.7048 279.385 76.3578 269.298 79.2105 268.001C79.9198 267.678 78.9179 273.625 78.9179 274.496C78.9179 276.081 80.4393 268.405 80.4393 269.99C80.4393 270.432 79.8081 273.103 79.3275 272.272C77.358 268.871 75.8762 266.768 71.8375 265.543C69.9982 264.985 64.1516 265.368 66.0738 265.368C67.3372 265.368 69.3215 260.971 70.7257 262.12C72.5888 263.644 70.0319 268.51 69.4384 270.166C68.4666 272.877 67.8581 269.064 70.2576 269.347C72.7578 269.641 70.207 278.873 71.6035 276.778C72.2516 275.806 74.2148 271.01 74.1489 271.57C72.8741 282.406 73.1394 268.608 75.2314 271.746" stroke="#00ADB5" stroke-opacity="0.5" stroke-linecap="round" stroke-linejoin="round"/>
<path d="M332.232 115.861C338.932 115.53 345.403 118.007 344.344 110.068C343.82 106.134 341.615 99.7021 342.764 95.8484C343.985 91.7569 351.476 82.5299 345.076 79.6396C339.709 77.2159 332.695 84.0698 331.705 88.7095C331.293 90.6392 331.381 96.6676 334.572 96.6676C336.984 96.6676 338.524 94.2999 340.629 96.4043C343.38 99.1553 343.871 101.665 341.916 105.123C337.224 113.424 318.661 104.152 328.662 94.1514C330.033 92.7806 335.455 86.4939 338.025 88.2999C341.56 90.7844 341.082 97.2529 339.254 100.471C337.43 103.68 330.738 107.041 328.106 102.929C326.806 100.897 327.428 99.5348 329.598 99.5348" stroke="#00ADB5" stroke-opacity="0.5" stroke-linecap="round" stroke-linejoin="round"/>
<path d="M388.337 165.146C388.955 164.896 408.221 155.385 407.325 160.611C406.844 163.415 407.165 166.031 407.559 168.832C407.71 169.904 410.321 178.253 407.705 178.253C402.831 178.253 398.073 175.805 393.193 176.732C391.17 177.116 387.141 178.502 386.991 175.269C386.878 172.844 384.864 161.945 389.653 163.01C393.601 163.887 393.772 160.754 390.97 167.72C390.572 168.709 387.957 176.14 388.395 175.795C392.776 172.353 395.179 165.735 399.191 161.722C401.697 159.217 397.402 169.273 396.88 170.529C394.214 176.947 401.028 165.09 401.795 163.917C405.163 158.766 402.606 167.987 402.088 169.505C400.53 174.068 405.319 165.548 407.237 164.414C413.593 160.658 407.588 173.63 406.242 170.939" stroke="#00ADB5" stroke-opacity="0.5" stroke-linecap="round" stroke-linejoin="round"/>
<path d="M336.445 264.373C336.747 272.114 336.612 276.337 343.174 271.453C345.036 270.068 344.245 273.346 343.788 274.145C343.026 275.48 338.555 282.189 343.057 279.616C344.197 278.965 347.27 277.665 347.27 280.172C347.27 280.568 345.892 285.412 347.241 284.063C349.451 281.853 349.491 273.521 349.611 270.283C349.637 269.576 349.946 268.754 349.318 269.113C346.09 270.957 344.557 280.615 342.881 284.385C341.435 287.64 337.264 283.805 334.865 282.279C330.318 279.385 333.177 281.44 333.285 281.225" stroke="#00ADB5" stroke-opacity="0.5" stroke-linecap="round" stroke-linejoin="round"/>
<path d="M300.107 333.363C300.087 333.608 299.469 348.726 299.58 341.379C299.614 339.137 299.549 336.893 299.58 334.65C299.667 328.281 300.804 331.236 303.559 333.86C304.822 335.063 309.457 337.66 308.708 340.092C308.488 340.809 301.048 342.104 299.872 342.55C298.991 342.884 293.787 346.161 293.787 346.002C293.787 342.089 295.165 337.854 295.63 333.948C296.615 325.677 302.338 347.818 302.71 342.228C302.798 340.912 302.74 333.077 302.74 335.031C302.74 336.485 303.793 344.241 303.793 339.156C303.793 338.005 303.793 336.854 303.793 335.703C303.793 335.161 304.089 337.758 304.29 337.254C305.02 335.43 303.793 331.762 303.793 336.23C303.793 341.246 302.387 337.634 299.317 337.634C296.69 337.634 295.186 347.26 296.537 345.007C297.721 343.035 295.389 335.002 296.42 339.127C296.96 341.286 298.257 338.899 299.053 338.103" stroke="#00ADB5" stroke-opacity="0.5" stroke-linecap="round" stroke-linejoin="round"/>
</g>
<path fill-rule="evenodd" clip-rule="evenodd" d="M297.611 277.861C295.169 276.97 292.842 275.668 290.72 273.859C274.696 260.208 281.567 239.612 291.264 228.889C300.962 218.167 360.284 222.444 332.299 272.118C332.181 272.189 332.061 272.26 331.939 272.332C328.81 282.288 331.449 290.827 334.615 301.072C335.906 305.251 337.285 309.714 338.396 314.672L308.716 312.546C300.558 301.468 297.466 290.302 297.611 277.861Z" fill="#F5B9AB"/>
<path d="M290.72 273.859L290.266 274.392L290.72 273.859ZM297.611 277.861L297.851 277.204C298.13 277.306 298.314 277.573 298.311 277.869L297.611 277.861ZM291.264 228.889L291.783 229.359L291.264 228.889ZM332.299 272.118L332.909 272.461C332.849 272.566 332.764 272.654 332.66 272.717L332.299 272.118ZM331.939 272.332L331.272 272.122C331.324 271.957 331.435 271.817 331.585 271.729L331.939 272.332ZM334.615 301.072L333.946 301.279L334.615 301.072ZM338.396 314.672L339.078 314.519C339.127 314.735 339.07 314.961 338.926 315.129C338.782 315.296 338.567 315.386 338.346 315.37L338.396 314.672ZM308.716 312.546L308.666 313.243C308.462 313.229 308.274 313.125 308.153 312.96L308.716 312.546ZM291.173 273.327C293.229 275.078 295.481 276.34 297.851 277.204L297.372 278.518C294.856 277.601 292.456 276.257 290.266 274.392L291.173 273.327ZM291.783 229.359C287.016 234.63 282.95 242.327 282.042 250.355C281.138 258.35 283.361 266.671 291.173 273.327L290.266 274.392C282.055 267.396 279.702 258.594 280.652 250.198C281.598 241.833 285.816 233.872 290.746 228.42L291.783 229.359ZM331.69 271.774C338.639 259.439 340.097 250.046 338.378 243.066C336.664 236.105 331.752 231.393 325.613 228.487C319.465 225.577 312.134 224.507 305.738 224.833C302.543 224.996 299.602 225.506 297.176 226.296C294.737 227.09 292.88 228.146 291.783 229.359L290.746 228.42C292.073 226.952 294.191 225.797 296.743 224.966C299.308 224.131 302.374 223.604 305.667 223.436C312.246 223.101 319.815 224.195 326.212 227.223C332.618 230.255 337.895 235.255 339.736 242.732C341.573 250.19 339.952 259.959 332.909 272.461L331.69 271.774ZM331.585 271.729C331.705 271.658 331.823 271.588 331.939 271.518L332.66 272.717C332.54 272.789 332.418 272.862 332.293 272.935L331.585 271.729ZM333.946 301.279C330.79 291.062 328.068 282.316 331.272 272.122L332.606 272.542C329.552 282.259 332.108 290.591 335.283 300.866L333.946 301.279ZM337.713 314.825C336.609 309.898 335.238 305.46 333.946 301.279L335.283 300.866C336.573 305.042 337.96 309.53 339.078 314.519L337.713 314.825ZM308.766 311.848L338.446 313.975L338.346 315.37L308.666 313.243L308.766 311.848ZM298.311 277.869C298.167 290.169 301.218 301.185 309.279 312.131L308.153 312.96C299.899 301.752 296.764 290.435 296.912 277.853L298.311 277.869Z" fill="black"/>
<path d="M337.624 242.12C342.268 248.582 337.266 264.541 333.575 268.532C364.158 251.563 344.796 213.276 335.36 220.258C333.822 206.103 317.58 201.108 306.507 213.08C278.747 190.662 277.286 228.862 287.085 234.671C296.883 240.48 308.771 234.948 314.94 237.944C321.11 240.939 324.917 259.085 326.915 249.014C328.914 238.943 331.818 234.044 337.624 242.12Z" fill="#00ADB5" stroke="black" stroke-width="1.39887"/>
<path d="M365.072 523.989L322.023 520.865L332.383 404.989C332.383 404.989 282.437 286.63 325.312 286.63C385.893 286.63 406.151 379.966 405.396 404.989C404.64 430.012 365.072 523.989 365.072 523.989Z" fill="#EEEEEE" stroke="black" stroke-width="1.39887"/>
<path d="M321.697 525.877L322.299 520.645L365.651 522.387L364.695 530.795C363.15 544.389 349.534 553.155 336.519 548.935C326.72 545.757 320.52 536.111 321.697 525.877Z" fill="#F5B9AB" stroke="black" stroke-width="1.39887" stroke-linejoin="round"/>
<path d="M259.211 440.602C231.208 413.451 266.008 323.516 271.684 312.813C279.947 297.561 304.75 271.028 337.852 286.912C387.909 310.932 365.035 429.78 356.037 470.978L259.211 440.602Z" fill="#EEEEEE" stroke="black" stroke-width="1.39887"/>
<path d="M41.1542 534.857L36.6416 494.065C36.6416 494.065 141.411 460.111 227.758 447.371L346.316 457.612C364.125 499.696 355.342 577.038 223.256 541.481L41.1542 534.857Z" fill="#00ADB5" stroke="black" stroke-width="1.39887"/>
<path fill-rule="evenodd" clip-rule="evenodd" d="M168.109 463.389L149.494 521.285L110.438 519.377L92.617 411.371C89.6647 393.479 103.469 377.21 121.603 377.21L145.767 377.21L147.436 374.601L155.548 377.21C162.031 377.218 167.901 379.281 172.658 382.714L336.786 435.51C362.168 443.675 373.585 473.144 360.327 496.278L335.219 540.092C322.186 562.835 291.714 568.179 271.72 551.228L168.109 463.389Z" fill="#00ADB5"/>
<path d="M168.109 463.389L168.561 462.855L167.763 462.179L167.443 463.175L168.109 463.389ZM149.494 521.285L149.46 521.983L149.996 522.009L150.16 521.499L149.494 521.285ZM110.438 519.377L109.747 519.49L109.839 520.048L110.403 520.075L110.438 519.377ZM92.617 411.371L93.3071 411.257L92.617 411.371ZM121.603 377.21V377.91V377.21ZM145.767 377.21V377.91H146.15L146.356 377.587L145.767 377.21ZM147.436 374.601L147.651 373.935L147.138 373.77L146.847 374.224L147.436 374.601ZM155.548 377.21L155.334 377.876L155.438 377.91L155.547 377.91L155.548 377.21ZM172.658 382.714L172.249 383.281L172.339 383.346L172.444 383.38L172.658 382.714ZM336.786 435.51L337 434.844L336.786 435.51ZM360.327 496.278L360.934 496.626L360.327 496.278ZM335.219 540.092L334.612 539.744L335.219 540.092ZM271.72 551.228L272.172 550.694L271.72 551.228ZM167.443 463.175L148.828 521.07L150.16 521.499L168.775 463.603L167.443 463.175ZM149.528 520.586L110.472 518.678L110.403 520.075L149.46 521.983L149.528 520.586ZM111.128 519.263L93.3071 411.257L91.9269 411.485L109.747 519.49L111.128 519.263ZM93.3071 411.257C90.4251 393.791 103.9 377.91 121.603 377.91L121.603 376.511C103.037 376.511 88.9043 393.166 91.9269 411.485L93.3071 411.257ZM121.603 377.91L145.767 377.91V376.511L121.603 376.511V377.91ZM146.356 377.587L148.026 374.978L146.847 374.224L145.178 376.833L146.356 377.587ZM147.222 375.267L155.334 377.876L155.762 376.544L147.651 373.935L147.222 375.267ZM155.547 377.91C161.879 377.917 167.606 379.931 172.249 383.281L173.068 382.147C168.195 378.631 162.183 376.519 155.549 376.511L155.547 377.91ZM172.444 383.38L336.571 436.176L337 434.844L172.873 382.048L172.444 383.38ZM336.571 436.176C361.53 444.204 372.757 473.182 359.72 495.931L360.934 496.626C374.412 473.106 362.806 443.145 337 434.844L336.571 436.176ZM359.72 495.931L334.612 539.744L335.826 540.44L360.934 496.626L359.72 495.931ZM334.612 539.744C321.796 562.108 291.833 567.363 272.172 550.694L271.267 551.761C291.595 568.995 322.575 563.562 335.826 540.44L334.612 539.744ZM272.172 550.694L168.561 462.855L167.657 463.923L271.267 551.761L272.172 550.694Z" fill="black"/>
<path d="M109.988 518.936L149.926 521.298L153.022 554.825C153.022 554.825 117.986 553.809 96.7321 547.161L111.018 540.14L109.988 518.936Z" fill="#EEEEEE" stroke="black" stroke-width="1.39887" stroke-linejoin="round"/>
<rect width="97.773" height="18.3324" rx="2.00878" transform="matrix(0.258819 0.965926 0.965926 -0.258819 96.5281 274.538)" fill="#EEEEEE" stroke="black" stroke-width="1.39887"/>
<rect width="97.773" height="18.3324" rx="2.00878" transform="matrix(-1 0 0 1 215.723 359.418)" fill="#00ADB5" stroke="black" stroke-width="1.39887"/>
<path d="M36.9524 494.095L41.8922 534.877L12.0809 543.105C12.0809 543.105 6.46425 507.966 9.18598 485.521L19.0313 498.456L36.9524 494.095Z" fill="#EEEEEE" stroke="black" stroke-width="1.39887" stroke-linejoin="round"/>
<path d="M184.994 388.615L207.366 351.338L275.96 388.689C272.815 345.582 302.402 283.546 333.471 287.325C387.976 293.953 347.821 428.301 312.116 451.983C276.41 475.664 184.994 388.615 184.994 388.615Z" fill="#EEEEEE"/>
<path d="M355.174 369.777C346.738 405.124 328.933 440.829 312.116 451.983C276.41 475.664 184.994 388.615 184.994 388.615L207.366 351.338L275.96 388.689L299.274 330.2" stroke="black" stroke-width="1.39887"/>
<path d="M203.293 348.51L207.578 351.573L185.038 388.645L178.148 383.734C167.007 375.792 165.94 359.633 175.941 350.296C183.471 343.266 194.913 342.519 203.293 348.51Z" fill="#F5B9AB" stroke="black" stroke-width="1.39887" stroke-linejoin="round"/>
<ellipse cx="178" cy="570" rx="174" ry="12" fill="black" fill-opacity="0.44"/>
</g>
<defs>
<filter id="filter0_d_16_223" x="0" y="33.5733" width="528.401" height="556.427" filterUnits="userSpaceOnUse" color-interpolation-filters="sRGB">
<feFlood flood-opacity="0" result="BackgroundImageFix"/>
<feColorMatrix in="SourceAlpha" type="matrix" values="0 0 0 0 0 0 0 0 0 0 0 0 0 0 0 0 0 0 127 0" result="hardAlpha"/>
<feOffset dy="4"/>
<feGaussianBlur stdDeviation="2"/>
<feComposite in2="hardAlpha" operator="out"/>
<feColorMatrix type="matrix" values="0 0 0 0 0 0 0 0 0 0 0 0 0 0 0 0 0 0 0.25 0"/>
<feBlend mode="normal" in2="BackgroundImageFix" result="effect1_dropShadow_16_223"/>
<feBlend mode="normal" in="SourceGraphic" in2="effect1_dropShadow_16_223" result="shape"/>
</filter>
<filter id="filter1_d_16_223" x="58.6772" y="33.5733" width="469.723" height="459.26" filterUnits="userSpaceOnUse" color-interpolation-filters="sRGB">
<feFlood flood-opacity="0" result="BackgroundImageFix"/>
<feColorMatrix in="SourceAlpha" type="matrix" values="0 0 0 0 0 0 0 0 0 0 0 0 0 0 0 0 0 0 127 0" result="hardAlpha"/>
<feOffset dy="4"/>
<feGaussianBlur stdDeviation="2"/>
<feComposite in2="hardAlpha" operator="out"/>
<feColorMatrix type="matrix" values="0 0 0 0 0 0 0 0 0 0 0 0 0 0 0 0 0 0 0.25 0"/>
<feBlend mode="normal" in2="BackgroundImageFix" result="effect1_dropShadow_16_223"/>
<feBlend mode="normal" in="SourceGraphic" in2="effect1_dropShadow_16_223" result="shape"/>
</filter>
</defs>
</svg>
