<svg width="573" height="166" viewBox="0 0 573 166" fill="none" xmlns="http://www.w3.org/2000/svg">
<path d="M0.168 35.208C0.168 28.552 1.608 22.632 4.488 17.448C7.368 12.2 11.368 8.136 16.488 5.256C21.672 2.312 27.528 0.839996 34.056 0.839996C42.056 0.839996 48.904 2.952 54.6 7.17599C60.296 11.4 64.104 17.16 66.024 24.456H47.976C46.632 21.64 44.712 19.496 42.216 18.024C39.784 16.552 37 15.816 33.864 15.816C28.808 15.816 24.712 17.576 21.576 21.096C18.44 24.616 16.872 29.32 16.872 35.208C16.872 41.096 18.44 45.8 21.576 49.32C24.712 52.84 28.808 54.6 33.864 54.6C37 54.6 39.784 53.864 42.216 52.392C44.712 50.92 46.632 48.776 47.976 45.96H66.024C64.104 53.256 60.296 59.016 54.6 63.24C48.904 67.4 42.056 69.48 34.056 69.48C27.528 69.48 21.672 68.04 16.488 65.16C11.368 62.216 7.368 58.152 4.488 52.968C1.608 47.784 0.168 41.864 0.168 35.208ZM110.445 69L96.429 43.56H92.493V69H76.077V1.608H103.629C108.941 1.608 113.453 2.536 117.165 4.392C120.941 6.248 123.757 8.80799 125.613 12.072C127.469 15.272 128.397 18.856 128.397 22.824C128.397 27.304 127.117 31.304 124.557 34.824C122.061 38.344 118.349 40.84 113.421 42.312L128.973 69H110.445ZM92.493 31.944H102.669C105.677 31.944 107.917 31.208 109.389 29.736C110.925 28.264 111.693 26.184 111.693 23.496C111.693 20.936 110.925 18.92 109.389 17.448C107.917 15.976 105.677 15.24 102.669 15.24H92.493V31.944ZM155.118 14.76V28.392H177.102V41.064H155.118V55.848H179.982V69H138.702V1.608H179.982V14.76H155.118ZM232.592 57.096H207.44L203.408 69H186.224L210.608 1.608H229.616L254 69H236.624L232.592 57.096ZM228.368 44.424L220.016 19.752L211.76 44.424H228.368ZM309.901 1.608V14.76H292.045V69H275.629V14.76H257.773V1.608H309.901ZM334.556 1.608V69H318.14V1.608H334.556ZM409.716 1.608L385.812 69H365.268L341.364 1.608H358.836L375.54 52.488L392.34 1.608H409.716ZM432.993 14.76V28.392H454.977V41.064H432.993V55.848H457.857V69H416.577V1.608H457.857V14.76H432.993ZM504.986 1.608V41.928C504.986 45.96 505.978 49.064 507.962 51.24C509.946 53.416 512.858 54.504 516.698 54.504C520.538 54.504 523.482 53.416 525.53 51.24C527.578 49.064 528.602 45.96 528.602 41.928V1.608H545.018V41.832C545.018 47.848 543.738 52.936 541.178 57.096C538.618 61.256 535.162 64.392 530.81 66.504C526.522 68.616 521.722 69.672 516.41 69.672C511.098 69.672 506.33 68.648 502.106 66.6C497.946 64.488 494.65 61.352 492.218 57.192C489.786 52.968 488.57 47.848 488.57 41.832V1.608H504.986ZM572.962 1.608V69H556.546V1.608H572.962Z" fill="#EEEEEE"/>
<path d="M28.2 97.608C35.304 97.608 41.512 99.016 46.824 101.832C52.136 104.648 56.232 108.616 59.112 113.736C62.056 118.792 63.528 124.648 63.528 131.304C63.528 137.896 62.056 143.752 59.112 148.872C56.232 153.992 52.104 157.96 46.728 160.776C41.416 163.592 35.24 165 28.2 165H2.952V97.608H28.2ZM27.144 150.792C33.352 150.792 38.184 149.096 41.64 145.704C45.096 142.312 46.824 137.512 46.824 131.304C46.824 125.096 45.096 120.264 41.64 116.808C38.184 113.352 33.352 111.624 27.144 111.624H19.368V150.792H27.144ZM89.118 110.76V124.392H111.102V137.064H89.118V151.848H113.982V165H72.702V97.608H113.982V110.76H89.118ZM149.024 165.672C144.096 165.672 139.68 164.872 135.776 163.272C131.872 161.672 128.736 159.304 126.368 156.168C124.064 153.032 122.848 149.256 122.72 144.84H140.192C140.448 147.336 141.312 149.256 142.784 150.6C144.256 151.88 146.176 152.52 148.544 152.52C150.976 152.52 152.896 151.976 154.304 150.888C155.712 149.736 156.416 148.168 156.416 146.184C156.416 144.52 155.84 143.144 154.688 142.056C153.6 140.968 152.224 140.072 150.56 139.368C148.96 138.664 146.656 137.864 143.648 136.968C139.296 135.624 135.744 134.28 132.992 132.936C130.24 131.592 127.872 129.608 125.888 126.984C123.904 124.36 122.912 120.936 122.912 116.712C122.912 110.44 125.184 105.544 129.728 102.024C134.272 98.44 140.192 96.648 147.488 96.648C154.912 96.648 160.896 98.44 165.44 102.024C169.984 105.544 172.416 110.472 172.736 116.808H154.976C154.848 114.632 154.048 112.936 152.576 111.72C151.104 110.44 149.216 109.8 146.911 109.8C144.928 109.8 143.328 110.344 142.112 111.432C140.896 112.456 140.288 113.96 140.288 115.944C140.288 118.12 141.312 119.816 143.359 121.032C145.408 122.248 148.608 123.56 152.96 124.968C157.312 126.44 160.832 127.848 163.52 129.192C166.272 130.536 168.64 132.488 170.624 135.048C172.608 137.608 173.6 140.904 173.6 144.936C173.6 148.776 172.608 152.264 170.624 155.4C168.704 158.536 165.888 161.032 162.176 162.888C158.464 164.744 154.08 165.672 149.024 165.672ZM200.118 97.608V165H183.702V97.608H200.118ZM256.75 118.92C255.535 116.68 253.775 114.984 251.471 113.832C249.231 112.616 246.575 112.008 243.503 112.008C238.191 112.008 233.935 113.768 230.734 117.288C227.535 120.744 225.935 125.384 225.935 131.208C225.935 137.416 227.599 142.28 230.927 145.8C234.319 149.256 238.959 150.984 244.847 150.984C248.879 150.984 252.271 149.96 255.023 147.912C257.839 145.864 259.887 142.92 261.167 139.08H240.335V126.984H276.047V142.248C274.831 146.344 272.751 150.152 269.807 153.672C266.927 157.192 263.247 160.04 258.767 162.216C254.287 164.392 249.231 165.48 243.599 165.48C236.943 165.48 230.991 164.04 225.743 161.16C220.559 158.216 216.495 154.152 213.551 148.968C210.671 143.784 209.23 137.864 209.23 131.208C209.23 124.552 210.671 118.632 213.551 113.448C216.495 108.2 220.559 104.136 225.743 101.256C230.927 98.312 236.847 96.84 243.503 96.84C251.567 96.84 258.351 98.792 263.855 102.696C269.423 106.6 273.103 112.008 274.895 118.92H256.75ZM345.428 165H329.012L301.556 123.432V165H285.14V97.608H301.556L329.012 139.368V97.608H345.428V165ZM373.743 110.76V124.392H395.727V137.064H373.743V151.848H398.607V165H357.327V97.608H398.607V110.76H373.743ZM443.633 165L429.617 139.56H425.681V165H409.265V97.608H436.817C442.129 97.608 446.641 98.536 450.353 100.392C454.129 102.248 456.945 104.808 458.801 108.072C460.657 111.272 461.585 114.856 461.585 118.824C461.585 123.304 460.305 127.304 457.745 130.824C455.249 134.344 451.537 136.84 446.609 138.312L462.161 165H443.633ZM425.681 127.944H435.857C438.865 127.944 441.105 127.208 442.577 125.736C444.113 124.264 444.881 122.184 444.881 119.496C444.881 116.936 444.113 114.92 442.577 113.448C441.105 111.976 438.865 111.24 435.857 111.24H425.681V127.944Z" fill="#00ADB5"/>
</svg>
